<svg width="387" height="444" viewBox="0 0 387 444" fill="none" xmlns="http://www.w3.org/2000/svg">
<g clip-path="url(#clip0)">
<path d="M310.647 108.172L342.285 76.5334C343.59 75.231 344.203 73.3886 343.942 71.5644C343.684 69.7402 342.578 68.1426 340.962 67.2545L302.927 46.369C300.091 44.8127 296.529 45.8495 294.971 48.6853C293.414 51.5235 294.449 55.0849 297.287 56.6413L328.479 73.7685L301.327 100.918L203.67 47.2937L230.82 20.1438L258.265 35.2156C261.101 36.772 264.664 35.7375 266.221 32.8993C267.78 30.0635 266.743 26.4998 263.905 24.9434L232.605 7.75439C230.321 6.50012 227.483 6.90524 225.642 8.74774L194.002 40.3884L162.361 8.74774C160.519 6.90524 157.68 6.50241 155.399 7.75439L47.0413 67.2545C45.4254 68.1426 44.3199 69.7379 44.0612 71.5644C43.8003 73.3886 44.4137 75.231 45.7183 76.5334L77.3567 108.172L45.7183 139.808C44.4137 141.112 43.8003 142.953 44.0612 144.779C44.3199 146.603 45.4254 148.201 47.0413 149.087L79.7851 167.068V227.167C79.7851 229.307 80.9501 231.276 82.8247 232.306L191.182 291.804C192.061 292.287 193.031 292.527 194.002 292.527C194.972 292.527 195.943 292.287 196.822 291.804L305.179 232.306C307.053 231.276 308.218 229.307 308.218 227.167V167.068L340.962 149.089C342.578 148.201 343.684 146.603 343.942 144.779C344.203 142.955 343.59 141.112 342.285 139.81L310.647 108.172ZM194.002 160.984L97.8187 108.169L194.002 55.3527L290.185 108.169L194.002 160.984ZM157.186 20.1438L184.334 47.2937L86.6767 100.918L59.5268 73.7685L157.186 20.1438ZM86.6813 115.423L184.338 169.047L157.186 196.2L59.5268 142.575L86.6813 115.423ZM296.5 223.702L199.861 276.766V216.87C199.861 213.634 197.238 211.011 194.002 211.011C190.765 211.011 188.142 213.634 188.142 216.87V276.766L91.5039 223.702V173.504L155.399 208.589C156.284 209.074 157.255 209.312 158.216 209.312C159.734 209.312 161.235 208.722 162.361 207.596L194.002 175.955L225.642 207.596C226.768 208.724 228.27 209.312 229.787 209.312C230.749 209.312 231.719 209.074 232.605 208.589L296.5 173.504V223.702ZM230.82 196.2L203.667 169.045L301.324 115.423L328.479 142.573L230.82 196.2Z" fill="#E6A267"/>
<path d="M281.188 46.9779C282.728 46.9779 284.234 46.3508 285.33 45.259C286.42 44.1695 287.047 42.6589 287.047 41.1185C287.047 39.5759 286.42 38.0652 285.33 36.9758C284.241 35.884 282.728 35.2592 281.188 35.2592C279.64 35.2592 278.134 35.884 277.045 36.9758C275.948 38.0652 275.328 39.5759 275.328 41.1185C275.328 42.6589 275.948 44.1695 277.045 45.259C278.134 46.3508 279.647 46.9779 281.188 46.9779Z" fill="#E6A267"/>
<path d="M193.999 191.558C192.459 191.558 190.946 192.183 189.857 193.275C188.767 194.369 188.14 195.875 188.14 197.417C188.14 198.962 188.767 200.468 189.857 201.565C190.946 202.654 192.459 203.277 193.999 203.277C195.54 203.277 197.053 202.654 198.142 201.565C199.232 200.468 199.859 198.962 199.859 197.417C199.859 195.875 199.232 194.369 198.142 193.275C197.053 192.183 195.54 191.558 193.999 191.558Z" fill="#E6A267"/>
</g>
<path d="M121.56 325.88V334.04H131.16V337.76H121.56V346.28H132.36V350H117V322.16H132.36V325.88H121.56ZM172.657 327.6C174.39 327.6 175.937 327.96 177.297 328.68C178.683 329.4 179.763 330.467 180.537 331.88C181.337 333.293 181.737 335 181.737 337V350H177.217V337.68C177.217 335.707 176.723 334.2 175.737 333.16C174.75 332.093 173.403 331.56 171.697 331.56C169.99 331.56 168.63 332.093 167.617 333.16C166.63 334.2 166.137 335.707 166.137 337.68V350H161.617V337.68C161.617 335.707 161.123 334.2 160.137 333.16C159.15 332.093 157.803 331.56 156.097 331.56C154.39 331.56 153.03 332.093 152.017 333.16C151.03 334.2 150.537 335.707 150.537 337.68V350H145.977V327.96H150.537V330.48C151.283 329.573 152.23 328.867 153.377 328.36C154.523 327.853 155.75 327.6 157.057 327.6C158.817 327.6 160.39 327.973 161.777 328.72C163.163 329.467 164.23 330.547 164.977 331.96C165.643 330.627 166.683 329.573 168.097 328.8C169.51 328 171.03 327.6 172.657 327.6ZM200.099 331.2C200.872 330.187 201.926 329.333 203.259 328.64C204.592 327.947 206.099 327.6 207.779 327.6C209.699 327.6 211.446 328.08 213.019 329.04C214.619 329.973 215.872 331.293 216.779 333C217.686 334.707 218.139 336.667 218.139 338.88C218.139 341.093 217.686 343.08 216.779 344.84C215.872 346.573 214.619 347.933 213.019 348.92C211.446 349.88 209.699 350.36 207.779 350.36C206.099 350.36 204.606 350.027 203.299 349.36C201.992 348.667 200.926 347.813 200.099 346.8V360.48H195.539V327.96H200.099V331.2ZM213.499 338.88C213.499 337.36 213.179 336.053 212.539 334.96C211.926 333.84 211.099 333 210.059 332.44C209.046 331.853 207.952 331.56 206.779 331.56C205.632 331.56 204.539 331.853 203.499 332.44C202.486 333.027 201.659 333.88 201.019 335C200.406 336.12 200.099 337.44 200.099 338.96C200.099 340.48 200.406 341.813 201.019 342.96C201.659 344.08 202.486 344.933 203.499 345.52C204.539 346.107 205.632 346.4 206.779 346.4C207.952 346.4 209.046 346.107 210.059 345.52C211.099 344.907 211.926 344.027 212.539 342.88C213.179 341.733 213.499 340.4 213.499 338.88ZM235.968 331.68V343.88C235.968 344.707 236.155 345.307 236.528 345.68C236.928 346.027 237.595 346.2 238.528 346.2H241.328V350H237.728C235.675 350 234.102 349.52 233.008 348.56C231.915 347.6 231.368 346.04 231.368 343.88V331.68H228.768V327.96H231.368V322.48H235.968V327.96H241.328V331.68H235.968ZM273.371 327.96L259.851 360.36H255.131L259.611 349.64L250.931 327.96H256.011L262.211 344.76L268.651 327.96H273.371Z" fill="white" fill-opacity="0.6"/>
<path d="M11.4585 398.168C10.3385 398.168 9.33049 397.976 8.43449 397.592C7.53849 397.192 6.83449 396.632 6.32249 395.912C5.81049 395.192 5.55449 394.352 5.55449 393.392H8.48249C8.54649 394.112 8.82649 394.704 9.32249 395.168C9.83449 395.632 10.5465 395.864 11.4585 395.864C12.4025 395.864 13.1385 395.64 13.6665 395.192C14.1945 394.728 14.4585 394.136 14.4585 393.416C14.4585 392.856 14.2905 392.4 13.9545 392.048C13.6345 391.696 13.2265 391.424 12.7305 391.232C12.2505 391.04 11.5785 390.832 10.7145 390.608C9.62649 390.32 8.73849 390.032 8.05049 389.744C7.37849 389.44 6.80249 388.976 6.32249 388.352C5.84249 387.728 5.60249 386.896 5.60249 385.856C5.60249 384.896 5.84249 384.056 6.32249 383.336C6.80249 382.616 7.47449 382.064 8.33849 381.68C9.20249 381.296 10.2025 381.104 11.3385 381.104C12.9545 381.104 14.2745 381.512 15.2985 382.328C16.3385 383.128 16.9145 384.232 17.0265 385.64H14.0025C13.9545 385.032 13.6665 384.512 13.1385 384.08C12.6105 383.648 11.9145 383.432 11.0505 383.432C10.2665 383.432 9.62649 383.632 9.13049 384.032C8.63449 384.432 8.38649 385.008 8.38649 385.76C8.38649 386.272 8.53849 386.696 8.84249 387.032C9.16249 387.352 9.56249 387.608 10.0425 387.8C10.5225 387.992 11.1785 388.2 12.0105 388.424C13.1145 388.728 14.0105 389.032 14.6985 389.336C15.4025 389.64 15.9945 390.112 16.4745 390.752C16.9705 391.376 17.2185 392.216 17.2185 393.272C17.2185 394.12 16.9865 394.92 16.5225 395.672C16.0745 396.424 15.4105 397.032 14.5305 397.496C13.6665 397.944 12.6425 398.168 11.4585 398.168ZM37.3669 391.064C37.3669 391.56 37.3349 392.008 37.2709 392.408H27.1669C27.2469 393.464 27.6389 394.312 28.3429 394.952C29.0469 395.592 29.9109 395.912 30.9349 395.912C32.4069 395.912 33.4469 395.296 34.0549 394.064H37.0069C36.6069 395.28 35.8789 396.28 34.8229 397.064C33.7829 397.832 32.4869 398.216 30.9349 398.216C29.6709 398.216 28.5349 397.936 27.5269 397.376C26.5349 396.8 25.7509 396 25.1749 394.976C24.6149 393.936 24.3349 392.736 24.3349 391.376C24.3349 390.016 24.6069 388.824 25.1509 387.8C25.7109 386.76 26.4869 385.96 27.4789 385.4C28.4869 384.84 29.6389 384.56 30.9349 384.56C32.1829 384.56 33.2949 384.832 34.2709 385.376C35.2469 385.92 36.0069 386.688 36.5509 387.68C37.0949 388.656 37.3669 389.784 37.3669 391.064ZM34.5109 390.2C34.4949 389.192 34.1349 388.384 33.4309 387.776C32.7269 387.168 31.8549 386.864 30.8149 386.864C29.8709 386.864 29.0629 387.168 28.3909 387.776C27.7189 388.368 27.3189 389.176 27.1909 390.2H34.5109ZM43.9474 391.328C43.9474 390 44.2194 388.824 44.7634 387.8C45.3234 386.776 46.0754 385.984 47.0194 385.424C47.9794 384.848 49.0354 384.56 50.1874 384.56C51.2274 384.56 52.1314 384.768 52.8994 385.184C53.6834 385.584 54.3074 386.088 54.7714 386.696V384.776H57.5314V398H54.7714V396.032C54.3074 396.656 53.6754 397.176 52.8754 397.592C52.0754 398.008 51.1634 398.216 50.1394 398.216C49.0034 398.216 47.9634 397.928 47.0194 397.352C46.0754 396.76 45.3234 395.944 44.7634 394.904C44.2194 393.848 43.9474 392.656 43.9474 391.328ZM54.7714 391.376C54.7714 390.464 54.5794 389.672 54.1954 389C53.8274 388.328 53.3394 387.816 52.7314 387.464C52.1234 387.112 51.4674 386.936 50.7634 386.936C50.0594 386.936 49.4034 387.112 48.7954 387.464C48.1874 387.8 47.6914 388.304 47.3074 388.976C46.9394 389.632 46.7554 390.416 46.7554 391.328C46.7554 392.24 46.9394 393.04 47.3074 393.728C47.6914 394.416 48.1874 394.944 48.7954 395.312C49.4194 395.664 50.0754 395.84 50.7634 395.84C51.4674 395.84 52.1234 395.664 52.7314 395.312C53.3394 394.96 53.8274 394.448 54.1954 393.776C54.5794 393.088 54.7714 392.288 54.7714 391.376ZM68.661 386.696C69.061 386.024 69.589 385.504 70.245 385.136C70.917 384.752 71.709 384.56 72.621 384.56V387.392H71.925C70.853 387.392 70.037 387.664 69.477 388.208C68.933 388.752 68.661 389.696 68.661 391.04V398H65.925V384.776H68.661V386.696ZM79.0239 391.376C79.0239 390.016 79.2959 388.824 79.8399 387.8C80.3999 386.76 81.1679 385.96 82.1439 385.4C83.1199 384.84 84.2399 384.56 85.5039 384.56C87.1039 384.56 88.4239 384.944 89.4639 385.712C90.5199 386.464 91.2319 387.544 91.5999 388.952H88.6479C88.4079 388.296 88.0239 387.784 87.4959 387.416C86.9679 387.048 86.3039 386.864 85.5039 386.864C84.3839 386.864 83.4879 387.264 82.8159 388.064C82.1599 388.848 81.8319 389.952 81.8319 391.376C81.8319 392.8 82.1599 393.912 82.8159 394.712C83.4879 395.512 84.3839 395.912 85.5039 395.912C87.0879 395.912 88.1359 395.216 88.6479 393.824H91.5999C91.2159 395.168 90.4959 396.24 89.4399 397.04C88.3839 397.824 87.0719 398.216 85.5039 398.216C84.2399 398.216 83.1199 397.936 82.1439 397.376C81.1679 396.8 80.3999 396 79.8399 394.976C79.2959 393.936 79.0239 392.736 79.0239 391.376ZM105.967 384.56C106.975 384.56 107.871 384.776 108.655 385.208C109.455 385.64 110.079 386.28 110.527 387.128C110.991 387.976 111.223 389 111.223 390.2V398H108.511V390.608C108.511 389.424 108.215 388.52 107.623 387.896C107.031 387.256 106.223 386.936 105.199 386.936C104.175 386.936 103.359 387.256 102.751 387.896C102.159 388.52 101.863 389.424 101.863 390.608V398H99.1266V380.24H101.863V386.312C102.327 385.752 102.911 385.32 103.615 385.016C104.335 384.712 105.119 384.56 105.967 384.56ZM136.091 387.008H133.643V398H130.883V387.008H129.323V384.776H130.883V383.84C130.883 382.32 131.283 381.216 132.083 380.528C132.899 379.824 134.171 379.472 135.899 379.472V381.752C135.067 381.752 134.483 381.912 134.147 382.232C133.811 382.536 133.643 383.072 133.643 383.84V384.776H136.091V387.008ZM149.052 398.216C147.804 398.216 146.676 397.936 145.668 397.376C144.66 396.8 143.868 396 143.292 394.976C142.716 393.936 142.428 392.736 142.428 391.376C142.428 390.032 142.724 388.84 143.316 387.8C143.908 386.76 144.716 385.96 145.74 385.4C146.764 384.84 147.908 384.56 149.172 384.56C150.436 384.56 151.58 384.84 152.604 385.4C153.628 385.96 154.436 386.76 155.028 387.8C155.62 388.84 155.916 390.032 155.916 391.376C155.916 392.72 155.612 393.912 155.004 394.952C154.396 395.992 153.564 396.8 152.508 397.376C151.468 397.936 150.316 398.216 149.052 398.216ZM149.052 395.84C149.756 395.84 150.412 395.672 151.02 395.336C151.644 395 152.148 394.496 152.532 393.824C152.916 393.152 153.108 392.336 153.108 391.376C153.108 390.416 152.924 389.608 152.556 388.952C152.188 388.28 151.7 387.776 151.092 387.44C150.484 387.104 149.828 386.936 149.124 386.936C148.42 386.936 147.764 387.104 147.156 387.44C146.564 387.776 146.092 388.28 145.74 388.952C145.388 389.608 145.212 390.416 145.212 391.376C145.212 392.8 145.572 393.904 146.292 394.688C147.028 395.456 147.948 395.84 149.052 395.84ZM166.156 386.696C166.556 386.024 167.084 385.504 167.74 385.136C168.412 384.752 169.204 384.56 170.116 384.56V387.392H169.42C168.348 387.392 167.532 387.664 166.972 388.208C166.428 388.752 166.156 389.696 166.156 391.04V398H163.42V384.776H166.156V386.696ZM193.266 398.216C192.226 398.216 191.29 398.032 190.458 397.664C189.642 397.28 188.994 396.768 188.514 396.128C188.034 395.472 187.778 394.744 187.746 393.944H190.578C190.626 394.504 190.89 394.976 191.37 395.36C191.866 395.728 192.482 395.912 193.218 395.912C193.986 395.912 194.578 395.768 194.994 395.48C195.426 395.176 195.642 394.792 195.642 394.328C195.642 393.832 195.402 393.464 194.922 393.224C194.458 392.984 193.714 392.72 192.69 392.432C191.698 392.16 190.89 391.896 190.266 391.64C189.642 391.384 189.098 390.992 188.634 390.464C188.186 389.936 187.962 389.24 187.962 388.376C187.962 387.672 188.17 387.032 188.586 386.456C189.002 385.864 189.594 385.4 190.362 385.064C191.146 384.728 192.042 384.56 193.05 384.56C194.554 384.56 195.762 384.944 196.674 385.712C197.602 386.464 198.098 387.496 198.162 388.808H195.426C195.378 388.216 195.138 387.744 194.706 387.392C194.274 387.04 193.69 386.864 192.954 386.864C192.234 386.864 191.682 387 191.298 387.272C190.914 387.544 190.722 387.904 190.722 388.352C190.722 388.704 190.85 389 191.106 389.24C191.362 389.48 191.674 389.672 192.042 389.816C192.41 389.944 192.954 390.112 193.674 390.32C194.634 390.576 195.418 390.84 196.026 391.112C196.65 391.368 197.186 391.752 197.634 392.264C198.082 392.776 198.314 393.456 198.33 394.304C198.33 395.056 198.122 395.728 197.706 396.32C197.29 396.912 196.698 397.376 195.93 397.712C195.178 398.048 194.29 398.216 193.266 398.216ZM211.822 398.216C210.574 398.216 209.446 397.936 208.438 397.376C207.43 396.8 206.638 396 206.062 394.976C205.486 393.936 205.198 392.736 205.198 391.376C205.198 390.032 205.494 388.84 206.086 387.8C206.678 386.76 207.486 385.96 208.51 385.4C209.534 384.84 210.678 384.56 211.942 384.56C213.206 384.56 214.35 384.84 215.374 385.4C216.398 385.96 217.206 386.76 217.798 387.8C218.39 388.84 218.686 390.032 218.686 391.376C218.686 392.72 218.382 393.912 217.774 394.952C217.166 395.992 216.334 396.8 215.278 397.376C214.238 397.936 213.086 398.216 211.822 398.216ZM211.822 395.84C212.526 395.84 213.182 395.672 213.79 395.336C214.414 395 214.918 394.496 215.302 393.824C215.686 393.152 215.878 392.336 215.878 391.376C215.878 390.416 215.694 389.608 215.326 388.952C214.958 388.28 214.47 387.776 213.862 387.44C213.254 387.104 212.598 386.936 211.894 386.936C211.19 386.936 210.534 387.104 209.926 387.44C209.334 387.776 208.862 388.28 208.51 388.952C208.158 389.608 207.982 390.416 207.982 391.376C207.982 392.8 208.342 393.904 209.062 394.688C209.798 395.456 210.718 395.84 211.822 395.84ZM242.199 384.56C243.239 384.56 244.167 384.776 244.983 385.208C245.815 385.64 246.463 386.28 246.927 387.128C247.407 387.976 247.647 389 247.647 390.2V398H244.935V390.608C244.935 389.424 244.639 388.52 244.047 387.896C243.455 387.256 242.647 386.936 241.623 386.936C240.599 386.936 239.783 387.256 239.175 387.896C238.583 388.52 238.287 389.424 238.287 390.608V398H235.575V390.608C235.575 389.424 235.279 388.52 234.687 387.896C234.095 387.256 233.287 386.936 232.263 386.936C231.239 386.936 230.423 387.256 229.815 387.896C229.223 388.52 228.927 389.424 228.927 390.608V398H226.191V384.776H228.927V386.288C229.375 385.744 229.943 385.32 230.631 385.016C231.319 384.712 232.055 384.56 232.839 384.56C233.895 384.56 234.839 384.784 235.671 385.232C236.503 385.68 237.143 386.328 237.591 387.176C237.991 386.376 238.615 385.744 239.463 385.28C240.311 384.8 241.223 384.56 242.199 384.56ZM268.048 391.064C268.048 391.56 268.016 392.008 267.952 392.408H257.848C257.928 393.464 258.32 394.312 259.024 394.952C259.728 395.592 260.592 395.912 261.616 395.912C263.088 395.912 264.128 395.296 264.736 394.064H267.688C267.288 395.28 266.56 396.28 265.504 397.064C264.464 397.832 263.168 398.216 261.616 398.216C260.352 398.216 259.216 397.936 258.208 397.376C257.216 396.8 256.432 396 255.856 394.976C255.296 393.936 255.016 392.736 255.016 391.376C255.016 390.016 255.288 388.824 255.832 387.8C256.392 386.76 257.168 385.96 258.16 385.4C259.168 384.84 260.32 384.56 261.616 384.56C262.864 384.56 263.976 384.832 264.952 385.376C265.928 385.92 266.688 386.688 267.232 387.68C267.776 388.656 268.048 389.784 268.048 391.064ZM265.192 390.2C265.176 389.192 264.816 388.384 264.112 387.776C263.408 387.168 262.536 386.864 261.496 386.864C260.552 386.864 259.744 387.168 259.072 387.776C258.4 388.368 258 389.176 257.872 390.2H265.192ZM302.583 384.56C303.623 384.56 304.551 384.776 305.367 385.208C306.199 385.64 306.847 386.28 307.311 387.128C307.791 387.976 308.031 389 308.031 390.2V398H305.319V390.608C305.319 389.424 305.023 388.52 304.431 387.896C303.839 387.256 303.031 386.936 302.007 386.936C300.983 386.936 300.167 387.256 299.559 387.896C298.967 388.52 298.671 389.424 298.671 390.608V398H295.959V390.608C295.959 389.424 295.663 388.52 295.071 387.896C294.479 387.256 293.671 386.936 292.647 386.936C291.623 386.936 290.807 387.256 290.199 387.896C289.607 388.52 289.311 389.424 289.311 390.608V398H286.575V384.776H289.311V386.288C289.759 385.744 290.327 385.32 291.015 385.016C291.703 384.712 292.439 384.56 293.223 384.56C294.279 384.56 295.223 384.784 296.055 385.232C296.887 385.68 297.527 386.328 297.975 387.176C298.375 386.376 298.999 385.744 299.847 385.28C300.695 384.8 301.607 384.56 302.583 384.56ZM328.289 384.776V398H325.553V396.44C325.121 396.984 324.553 397.416 323.849 397.736C323.161 398.04 322.425 398.192 321.641 398.192C320.601 398.192 319.665 397.976 318.833 397.544C318.017 397.112 317.369 396.472 316.889 395.624C316.425 394.776 316.193 393.752 316.193 392.552V384.776H318.905V392.144C318.905 393.328 319.201 394.24 319.793 394.88C320.385 395.504 321.193 395.816 322.217 395.816C323.241 395.816 324.049 395.504 324.641 394.88C325.249 394.24 325.553 393.328 325.553 392.144V384.776H328.289ZM341.498 398.216C340.458 398.216 339.522 398.032 338.69 397.664C337.874 397.28 337.226 396.768 336.746 396.128C336.266 395.472 336.01 394.744 335.978 393.944H338.81C338.858 394.504 339.122 394.976 339.602 395.36C340.098 395.728 340.714 395.912 341.45 395.912C342.218 395.912 342.81 395.768 343.226 395.48C343.658 395.176 343.874 394.792 343.874 394.328C343.874 393.832 343.634 393.464 343.154 393.224C342.69 392.984 341.946 392.72 340.922 392.432C339.93 392.16 339.122 391.896 338.498 391.64C337.874 391.384 337.33 390.992 336.866 390.464C336.418 389.936 336.194 389.24 336.194 388.376C336.194 387.672 336.402 387.032 336.818 386.456C337.234 385.864 337.826 385.4 338.594 385.064C339.378 384.728 340.274 384.56 341.282 384.56C342.786 384.56 343.994 384.944 344.906 385.712C345.834 386.464 346.33 387.496 346.394 388.808H343.658C343.61 388.216 343.37 387.744 342.938 387.392C342.506 387.04 341.922 386.864 341.186 386.864C340.466 386.864 339.914 387 339.53 387.272C339.146 387.544 338.954 387.904 338.954 388.352C338.954 388.704 339.082 389 339.338 389.24C339.594 389.48 339.906 389.672 340.274 389.816C340.642 389.944 341.186 390.112 341.906 390.32C342.866 390.576 343.65 390.84 344.258 391.112C344.882 391.368 345.418 391.752 345.866 392.264C346.314 392.776 346.546 393.456 346.562 394.304C346.562 395.056 346.354 395.728 345.938 396.32C345.522 396.912 344.93 397.376 344.162 397.712C343.41 398.048 342.522 398.216 341.498 398.216ZM355.711 383.024C355.215 383.024 354.799 382.856 354.463 382.52C354.127 382.184 353.959 381.768 353.959 381.272C353.959 380.776 354.127 380.36 354.463 380.024C354.799 379.688 355.215 379.52 355.711 379.52C356.191 379.52 356.599 379.688 356.935 380.024C357.271 380.36 357.439 380.776 357.439 381.272C357.439 381.768 357.271 382.184 356.935 382.52C356.599 382.856 356.191 383.024 355.711 383.024ZM357.055 384.776V398H354.319V384.776H357.055ZM364.535 391.376C364.535 390.016 364.807 388.824 365.351 387.8C365.911 386.76 366.679 385.96 367.655 385.4C368.631 384.84 369.751 384.56 371.015 384.56C372.615 384.56 373.935 384.944 374.975 385.712C376.031 386.464 376.743 387.544 377.111 388.952H374.159C373.919 388.296 373.535 387.784 373.007 387.416C372.479 387.048 371.815 386.864 371.015 386.864C369.895 386.864 368.999 387.264 368.327 388.064C367.671 388.848 367.343 389.952 367.343 391.376C367.343 392.8 367.671 393.912 368.327 394.712C368.999 395.512 369.895 395.912 371.015 395.912C372.599 395.912 373.647 395.216 374.159 393.824H377.111C376.727 395.168 376.007 396.24 374.951 397.04C373.895 397.824 372.583 398.216 371.015 398.216C369.751 398.216 368.631 397.936 367.655 397.376C366.679 396.8 365.911 396 365.351 394.976C364.807 393.936 364.535 392.736 364.535 391.376ZM132.124 423.008V430.328C132.124 430.824 132.236 431.184 132.46 431.408C132.7 431.616 133.1 431.72 133.66 431.72H135.34V434H133.18C131.948 434 131.004 433.712 130.348 433.136C129.692 432.56 129.364 431.624 129.364 430.328V423.008H127.804V420.776H129.364V417.488H132.124V420.776H135.34V423.008H132.124ZM148.398 434.216C147.15 434.216 146.022 433.936 145.014 433.376C144.006 432.8 143.214 432 142.638 430.976C142.062 429.936 141.774 428.736 141.774 427.376C141.774 426.032 142.07 424.84 142.662 423.8C143.254 422.76 144.062 421.96 145.086 421.4C146.11 420.84 147.254 420.56 148.518 420.56C149.782 420.56 150.926 420.84 151.95 421.4C152.974 421.96 153.782 422.76 154.374 423.8C154.966 424.84 155.262 426.032 155.262 427.376C155.262 428.72 154.958 429.912 154.35 430.952C153.742 431.992 152.91 432.8 151.854 433.376C150.814 433.936 149.662 434.216 148.398 434.216ZM148.398 431.84C149.102 431.84 149.758 431.672 150.366 431.336C150.99 431 151.494 430.496 151.878 429.824C152.262 429.152 152.454 428.336 152.454 427.376C152.454 426.416 152.27 425.608 151.902 424.952C151.534 424.28 151.046 423.776 150.438 423.44C149.83 423.104 149.174 422.936 148.47 422.936C147.766 422.936 147.11 423.104 146.502 423.44C145.91 423.776 145.438 424.28 145.086 424.952C144.734 425.608 144.558 426.416 144.558 427.376C144.558 428.8 144.918 429.904 145.638 430.688C146.374 431.456 147.294 431.84 148.398 431.84ZM178.601 434.216C177.561 434.216 176.625 434.032 175.793 433.664C174.977 433.28 174.329 432.768 173.849 432.128C173.369 431.472 173.113 430.744 173.081 429.944H175.913C175.961 430.504 176.225 430.976 176.705 431.36C177.201 431.728 177.817 431.912 178.553 431.912C179.321 431.912 179.913 431.768 180.329 431.48C180.761 431.176 180.977 430.792 180.977 430.328C180.977 429.832 180.737 429.464 180.257 429.224C179.793 428.984 179.049 428.72 178.025 428.432C177.033 428.16 176.225 427.896 175.601 427.64C174.977 427.384 174.433 426.992 173.969 426.464C173.521 425.936 173.297 425.24 173.297 424.376C173.297 423.672 173.505 423.032 173.921 422.456C174.337 421.864 174.929 421.4 175.697 421.064C176.481 420.728 177.377 420.56 178.385 420.56C179.889 420.56 181.097 420.944 182.009 421.712C182.937 422.464 183.433 423.496 183.497 424.808H180.761C180.713 424.216 180.473 423.744 180.041 423.392C179.609 423.04 179.025 422.864 178.289 422.864C177.569 422.864 177.017 423 176.633 423.272C176.249 423.544 176.057 423.904 176.057 424.352C176.057 424.704 176.185 425 176.441 425.24C176.697 425.48 177.009 425.672 177.377 425.816C177.745 425.944 178.289 426.112 179.009 426.32C179.969 426.576 180.753 426.84 181.361 427.112C181.985 427.368 182.521 427.752 182.969 428.264C183.417 428.776 183.649 429.456 183.665 430.304C183.665 431.056 183.457 431.728 183.041 432.32C182.625 432.912 182.033 433.376 181.265 433.712C180.513 434.048 179.625 434.216 178.601 434.216ZM194.613 423.008V430.328C194.613 430.824 194.725 431.184 194.949 431.408C195.189 431.616 195.589 431.72 196.149 431.72H197.829V434H195.669C194.437 434 193.493 433.712 192.837 433.136C192.181 432.56 191.853 431.624 191.853 430.328V423.008H190.293V420.776H191.853V417.488H194.613V420.776H197.829V423.008H194.613ZM204.239 427.328C204.239 426 204.511 424.824 205.055 423.8C205.615 422.776 206.367 421.984 207.311 421.424C208.271 420.848 209.327 420.56 210.479 420.56C211.519 420.56 212.423 420.768 213.191 421.184C213.975 421.584 214.599 422.088 215.063 422.696V420.776H217.823V434H215.063V432.032C214.599 432.656 213.967 433.176 213.167 433.592C212.367 434.008 211.455 434.216 210.431 434.216C209.295 434.216 208.255 433.928 207.311 433.352C206.367 432.76 205.615 431.944 205.055 430.904C204.511 429.848 204.239 428.656 204.239 427.328ZM215.063 427.376C215.063 426.464 214.871 425.672 214.487 425C214.119 424.328 213.631 423.816 213.023 423.464C212.415 423.112 211.759 422.936 211.055 422.936C210.351 422.936 209.695 423.112 209.087 423.464C208.479 423.8 207.983 424.304 207.599 424.976C207.231 425.632 207.047 426.416 207.047 427.328C207.047 428.24 207.231 429.04 207.599 429.728C207.983 430.416 208.479 430.944 209.087 431.312C209.711 431.664 210.367 431.84 211.055 431.84C211.759 431.84 212.415 431.664 213.023 431.312C213.631 430.96 214.119 430.448 214.487 429.776C214.871 429.088 215.063 428.288 215.063 427.376ZM228.952 422.696C229.352 422.024 229.88 421.504 230.536 421.136C231.208 420.752 232 420.56 232.912 420.56V423.392H232.216C231.144 423.392 230.328 423.664 229.768 424.208C229.224 424.752 228.952 425.696 228.952 427.04V434H226.216V420.776H228.952V422.696ZM243.419 423.008V430.328C243.419 430.824 243.531 431.184 243.755 431.408C243.995 431.616 244.395 431.72 244.955 431.72H246.635V434H244.475C243.243 434 242.299 433.712 241.643 433.136C240.987 432.56 240.659 431.624 240.659 430.328V423.008H239.099V420.776H240.659V417.488H243.419V420.776H246.635V423.008H243.419ZM257.389 417.32L257.077 428.96H254.797L254.485 417.32H257.389ZM256.021 434.168C255.525 434.168 255.109 434 254.773 433.664C254.437 433.328 254.269 432.912 254.269 432.416C254.269 431.92 254.437 431.504 254.773 431.168C255.109 430.832 255.525 430.664 256.021 430.664C256.501 430.664 256.909 430.832 257.245 431.168C257.581 431.504 257.749 431.92 257.749 432.416C257.749 432.912 257.581 433.328 257.245 433.664C256.909 434 256.501 434.168 256.021 434.168Z" fill="white" fill-opacity="0.6"/>
<defs>
<clipPath id="clip0">
<rect x="44" width="300" height="300" fill="white"/>
</clipPath>
</defs>
</svg>
