<svg width="128" height="128" viewBox="0 0 128 128" fill="none" xmlns="http://www.w3.org/2000/svg">
<path d="M94.92 31L92.18 33.96C89.5 36.84 85.18 37.3 81.88 35.16C76.46 31.66 69.02 28.9 59.88 30.42C50 32.08 41.54 38.12 36.6 46.36L20.54 34.2C29.98 19.64 46.4 10 65 10C75 10 84.88 13.12 93.54 18.92C97.62 21.66 98.26 27.42 94.92 31Z" fill="#F53140"/>
<path d="M32.0199 61.82C31.8399 66.76 32.7599 71.48 34.5599 75.74L18.1399 87.84C15.4399 82.82 13.5399 77.28 12.6399 71.4C10.5199 57.64 13.7199 44.64 20.5399 34.2L36.5999 46.36C33.8599 50.94 32.1999 56.22 32.0199 61.82Z" fill="url(#paint0_linear)"/>
<path d="M100.9 102.56C91.8001 110.7 79.6801 115.7 66.1801 115.98C45.8201 116.4 27.3201 105.06 18.1401 87.84L34.5601 75.74C39.5601 87.62 51.3401 96 65.0001 96C72.8801 96 80.0401 93.44 85.6601 89.12L100.9 102.56Z" fill="url(#paint1_linear)"/>
<path d="M118 63.94C118.02 79.4 111.48 93.1 100.9 102.56L85.66 89.12C89.86 85.9 93.2 81.7 95.34 76.82C95.92 75.5 94.94 74 93.5 74H74C69.58 74 66 70.42 66 66V62C66 57.58 69.58 54 74 54H108C113.5 54 118 58.44 118 63.94Z" fill="url(#paint2_linear)"/>
<defs>
<linearGradient id="paint0_linear" x1="24.2959" y1="130.256" x2="24.2959" y2="36.376" gradientUnits="userSpaceOnUse">
<stop stop-color="#FEAA53"/>
<stop offset="0.612" stop-color="#FFCD49"/>
<stop offset="1" stop-color="#FFDE44"/>
</linearGradient>
<linearGradient id="paint1_linear" x1="59.5201" y1="67.702" x2="59.5201" y2="145.878" gradientUnits="userSpaceOnUse">
<stop stop-color="#42D778"/>
<stop offset="0.428" stop-color="#3DCA76"/>
<stop offset="1" stop-color="#34B171"/>
</linearGradient>
<linearGradient id="paint2_linear" x1="92" y1="124.724" x2="92" y2="60.814" gradientUnits="userSpaceOnUse">
<stop stop-color="#155CDE"/>
<stop offset="0.278" stop-color="#1F7FE5"/>
<stop offset="0.569" stop-color="#279CEB"/>
<stop offset="0.82" stop-color="#2CAFEF"/>
<stop offset="1" stop-color="#2EB5F0"/>
</linearGradient>
</defs>
</svg>
