<svg width="50" height="50" viewBox="0 0 50 50" fill="none" xmlns="http://www.w3.org/2000/svg">
<path opacity="0.7" d="M46.092 40.7234C46.0932 40.6904 46.0938 40.6576 46.0938 40.625C46.0928 39.7965 45.7633 39.0022 45.1774 38.4163C44.5916 37.8305 43.7973 37.5009 42.9688 37.5V23.0469L45.7813 20.9375C45.8789 20.8642 45.9581 20.7691 46.0124 20.6597C46.0666 20.5503 46.0945 20.4298 46.0937 20.3077C46.093 20.1856 46.0636 20.0653 46.008 19.9566C45.9524 19.8479 45.872 19.7538 45.7735 19.6817L39.0625 14.7775V6.25C39.2697 6.25 39.4684 6.16769 39.6149 6.02118C39.7615 5.87466 39.8438 5.67595 39.8438 5.46875V2.34375C39.8438 2.13655 39.7615 1.93784 39.6149 1.79132C39.4684 1.64481 39.2697 1.5625 39.0625 1.5625H31.25C31.0428 1.5625 30.8441 1.64481 30.6976 1.79132C30.5511 1.93784 30.4688 2.13655 30.4688 2.34375V5.46875C30.4688 5.67595 30.5511 5.87466 30.6976 6.02118C30.8441 6.16769 31.0428 6.25 31.25 6.25V9.06846L25.461 4.83799C25.3272 4.74022 25.1657 4.68752 25 4.68752C24.8343 4.68752 24.6729 4.74022 24.5391 4.83799L4.22658 19.6817C4.128 19.7538 4.04767 19.8479 3.99205 19.9566C3.93643 20.0653 3.90706 20.1856 3.9063 20.3077C3.90554 20.4298 3.93341 20.5503 3.98768 20.6597C4.04194 20.7691 4.12109 20.8642 4.21877 20.9375L7.03127 23.0469V37.5C6.20276 37.5009 5.40844 37.8305 4.82259 38.4163C4.23674 39.0022 3.9072 39.7965 3.90627 40.625C3.90627 40.6576 3.90686 40.6904 3.90803 40.7234C3.17101 40.9129 2.52846 41.3649 2.10094 41.9944C1.67343 42.624 1.49032 43.3879 1.58599 44.1428C1.68165 44.8978 2.04951 45.5919 2.62054 46.0949C3.19157 46.598 3.92653 46.8753 4.68752 46.875H45.3125C46.0735 46.8753 46.8085 46.598 47.3795 46.0949C47.9505 45.5919 48.3184 44.8978 48.4141 44.1428C48.5097 43.3879 48.3266 42.624 47.8991 41.9944C47.4716 41.3649 46.829 40.9129 46.092 40.7234V40.7234ZM32.0313 3.125H38.2813V4.6875H32.0313V3.125ZM32.8125 10.1562V6.25H37.5V13.6357L32.7386 10.1562H32.8125ZM25 6.43633L43.9995 20.3207L42.1804 21.6851L25.4596 9.52441C25.326 9.42727 25.1652 9.37494 25 9.37494C24.8349 9.37494 24.674 9.42727 24.5405 9.52441L7.81965 21.6851L6.00051 20.3207L25 6.43633ZM3.12502 43.75C3.12545 43.3398 3.28701 42.9461 3.57488 42.6539C3.86276 42.3616 4.25391 42.1941 4.66408 42.1875H4.66594C4.70588 42.1931 4.74582 42.1979 4.78654 42.2005C4.91601 42.2087 5.04547 42.1845 5.16325 42.1301C5.28102 42.0757 5.3834 41.9929 5.46115 41.889C5.53889 41.7852 5.58956 41.6636 5.60857 41.5353C5.62758 41.407 5.61434 41.2759 5.57004 41.154C5.50539 40.985 5.4711 40.8059 5.46877 40.625C5.46926 40.2107 5.63404 39.8136 5.92696 39.5207C6.21988 39.2278 6.61702 39.063 7.03127 39.0625V45.3125H4.68752C4.27327 45.312 3.87613 45.1472 3.58321 44.8543C3.29029 44.5614 3.12551 44.1643 3.12502 43.75V43.75ZM36.7188 45.3125H27.3438V28.125H36.7188V45.3125ZM38.2813 45.3125V27.3438C38.2813 27.1365 38.199 26.9378 38.0524 26.7913C37.9059 26.6448 37.7072 26.5625 37.5 26.5625H26.5625C26.3553 26.5625 26.1566 26.6448 26.0101 26.7913C25.8636 26.9378 25.7813 27.1365 25.7813 27.3438V45.3125H8.59377V23.0541L25 11.1223L41.4063 23.0541V45.3125H38.2813ZM45.3125 45.3125H42.9688V39.0625C43.383 39.063 43.7802 39.2278 44.0731 39.5207C44.366 39.8136 44.5308 40.2107 44.5313 40.625C44.529 40.8061 44.4947 40.9853 44.43 41.1544C44.3857 41.2763 44.3725 41.4074 44.3915 41.5357C44.4105 41.664 44.4612 41.7856 44.5389 41.8894C44.6166 41.9933 44.719 42.0761 44.8368 42.1305C44.9546 42.1849 45.084 42.209 45.2135 42.2009C45.2542 42.1982 45.2942 42.1935 45.3341 42.1879H45.336C45.7504 42.191 46.1466 42.3586 46.4374 42.6538C46.7282 42.949 46.8898 43.3477 46.8867 43.7621C46.8836 44.1765 46.716 44.5727 46.4208 44.8635C46.1256 45.1544 45.7269 45.316 45.3125 45.3129V45.3125Z" fill="white"/>
<path opacity="0.7" d="M21.875 26.5625H12.5C12.2928 26.5625 12.0941 26.6448 11.9476 26.7913C11.8011 26.9378 11.7188 27.1365 11.7188 27.3438V38.2812C11.7188 38.4885 11.8011 38.6872 11.9476 38.8337C12.0941 38.9802 12.2928 39.0625 12.5 39.0625H21.875C22.0822 39.0625 22.2809 38.9802 22.4274 38.8337C22.5739 38.6872 22.6562 38.4885 22.6562 38.2812V27.3438C22.6562 27.1365 22.5739 26.9378 22.4274 26.7913C22.2809 26.6448 22.0822 26.5625 21.875 26.5625ZM21.0938 32.0312H17.9688V28.125H21.0938V32.0312ZM16.4062 28.125V32.0312H13.2812V28.125H16.4062ZM13.2812 33.5938H16.4062V37.5H13.2812V33.5938ZM17.9688 37.5V33.5938H21.0938V37.5H17.9688Z" fill="white"/>
<path opacity="0.7" d="M30.4093 36.2365C30.5744 35.8379 30.3851 35.3809 29.9865 35.2158C29.5879 35.0506 29.1309 35.2399 28.9658 35.6386C28.8006 36.0372 28.9899 36.4942 29.3886 36.6593C29.7872 36.8244 30.2442 36.6351 30.4093 36.2365Z" fill="white"/>
</svg>
