<svg width="480" height="384" viewBox="0 0 480 384" fill="none" xmlns="http://www.w3.org/2000/svg">
<path opacity="0.3" d="M4.15195 181.231L164.152 5.2313C168.6 0.335305 175.576 -1.2967 181.784 1.0713C187.928 3.4393 191.992 9.3593 191.992 15.9833V111.983H463.992C472.824 111.983 479.992 119.151 479.992 127.983V255.983C479.992 264.815 472.824 271.983 463.992 271.983H191.992V367.983C191.992 374.607 187.928 380.527 181.784 382.927C179.896 383.631 177.944 383.983 175.992 383.983C171.576 383.983 167.256 382.127 164.152 378.735L4.15195 202.735C-1.38405 196.655 -1.38405 187.311 4.15195 181.231Z" fill="white"/>
</svg>
