<svg width="147" height="19" viewBox="0 0 147 19" fill="none" xmlns="http://www.w3.org/2000/svg">
<path d="M9.988 15.852V18H0.124V0.767999H2.68V15.852H9.988ZM21.1947 5.616C22.0907 5.616 22.8987 5.764 23.6187 6.06C24.3467 6.348 24.9627 6.768 25.4667 7.32C25.9787 7.864 26.3707 8.524 26.6427 9.3C26.9147 10.068 27.0507 10.932 27.0507 11.892C27.0507 12.852 26.9147 13.72 26.6427 14.496C26.3707 15.272 25.9787 15.932 25.4667 16.476C24.9627 17.02 24.3467 17.44 23.6187 17.736C22.8987 18.024 22.0907 18.168 21.1947 18.168C20.2907 18.168 19.4747 18.024 18.7467 17.736C18.0267 17.44 17.4107 17.02 16.8987 16.476C16.3867 15.932 15.9907 15.272 15.7107 14.496C15.4387 13.72 15.3027 12.852 15.3027 11.892C15.3027 10.932 15.4387 10.068 15.7107 9.3C15.9907 8.524 16.3867 7.864 16.8987 7.32C17.4107 6.768 18.0267 6.348 18.7467 6.06C19.4747 5.764 20.2907 5.616 21.1947 5.616ZM21.1947 16.344C22.3467 16.344 23.2067 15.956 23.7747 15.18C24.3427 14.404 24.6267 13.312 24.6267 11.904C24.6267 10.496 24.3427 9.404 23.7747 8.628C23.2067 7.844 22.3467 7.452 21.1947 7.452C20.0267 7.452 19.1547 7.844 18.5787 8.628C18.0107 9.404 17.7267 10.496 17.7267 11.904C17.7267 13.312 18.0107 14.404 18.5787 15.18C19.1547 15.956 20.0267 16.344 21.1947 16.344ZM41.0147 12.588C40.0627 12.62 39.2547 12.696 38.5907 12.816C37.9267 12.928 37.3867 13.08 36.9707 13.272C36.5547 13.464 36.2547 13.692 36.0707 13.956C35.8867 14.212 35.7947 14.5 35.7947 14.82C35.7947 15.124 35.8427 15.388 35.9387 15.612C36.0427 15.828 36.1787 16.008 36.3467 16.152C36.5227 16.288 36.7267 16.388 36.9587 16.452C37.1907 16.516 37.4427 16.548 37.7147 16.548C38.0747 16.548 38.4027 16.512 38.6987 16.44C39.0027 16.368 39.2867 16.268 39.5507 16.14C39.8147 16.004 40.0667 15.84 40.3067 15.648C40.5467 15.456 40.7827 15.236 41.0147 14.988V12.588ZM34.1507 7.512C34.8307 6.864 35.5667 6.38 36.3587 6.06C37.1587 5.74 38.0347 5.58 38.9867 5.58C39.6827 5.58 40.2987 5.696 40.8347 5.928C41.3707 6.152 41.8227 6.468 42.1907 6.876C42.5587 7.284 42.8347 7.772 43.0187 8.34C43.2107 8.908 43.3067 9.536 43.3067 10.224V18H42.2627C42.0307 18 41.8547 17.964 41.7347 17.892C41.6147 17.812 41.5187 17.668 41.4467 17.46L41.1947 16.392C40.8827 16.68 40.5747 16.936 40.2707 17.16C39.9667 17.376 39.6467 17.564 39.3107 17.724C38.9827 17.876 38.6307 17.992 38.2547 18.072C37.8787 18.152 37.4627 18.192 37.0067 18.192C36.5267 18.192 36.0747 18.128 35.6507 18C35.2347 17.864 34.8707 17.66 34.5587 17.388C34.2467 17.116 33.9987 16.776 33.8147 16.368C33.6387 15.96 33.5507 15.484 33.5507 14.94C33.5507 14.46 33.6787 14 33.9347 13.56C34.1987 13.112 34.6227 12.712 35.2067 12.36C35.7987 12.008 36.5667 11.72 37.5107 11.496C38.4627 11.272 39.6307 11.144 41.0147 11.112V10.224C41.0147 9.304 40.8187 8.616 40.4267 8.16C40.0347 7.704 39.4587 7.476 38.6987 7.476C38.1867 7.476 37.7547 7.54 37.4027 7.668C37.0587 7.796 36.7587 7.94 36.5027 8.1C36.2547 8.252 36.0347 8.392 35.8427 8.52C35.6587 8.648 35.4667 8.712 35.2667 8.712C35.1067 8.712 34.9667 8.668 34.8467 8.58C34.7347 8.492 34.6427 8.388 34.5707 8.268L34.1507 7.512ZM59.0993 8.76C58.7153 8.256 58.2993 7.904 57.8513 7.704C57.4113 7.504 56.9153 7.404 56.3633 7.404C55.2913 7.404 54.4593 7.792 53.8673 8.568C53.2833 9.336 52.9913 10.46 52.9913 11.94C52.9913 12.716 53.0553 13.38 53.1833 13.932C53.3193 14.476 53.5113 14.924 53.7593 15.276C54.0153 15.62 54.3273 15.876 54.6953 16.044C55.0633 16.204 55.4793 16.284 55.9433 16.284C56.6233 16.284 57.2113 16.132 57.7073 15.828C58.2033 15.524 58.6673 15.096 59.0993 14.544V8.76ZM61.4513 0.287999V18H60.0353C59.7073 18 59.5033 17.844 59.4233 17.532L59.2193 16.128C58.6993 16.744 58.1073 17.24 57.4433 17.616C56.7873 17.984 56.0273 18.168 55.1633 18.168C54.4673 18.168 53.8353 18.032 53.2673 17.76C52.7073 17.488 52.2273 17.092 51.8273 16.572C51.4273 16.044 51.1193 15.392 50.9033 14.616C50.6873 13.84 50.5793 12.948 50.5793 11.94C50.5793 11.036 50.6993 10.196 50.9393 9.42C51.1793 8.644 51.5273 7.972 51.9833 7.404C52.4393 6.836 52.9913 6.392 53.6393 6.072C54.2873 5.744 55.0193 5.58 55.8353 5.58C56.5713 5.58 57.1953 5.7 57.7073 5.94C58.2273 6.18 58.6913 6.52 59.0993 6.96V0.287999H61.4513ZM80.3862 18V5.808H81.7902C82.1182 5.808 82.3222 5.964 82.4022 6.276L82.5702 7.44C83.0182 6.904 83.5142 6.468 84.0582 6.132C84.6102 5.788 85.2542 5.616 85.9902 5.616C86.7982 5.616 87.4542 5.84 87.9582 6.288C88.4622 6.728 88.8302 7.328 89.0622 8.088C89.2382 7.656 89.4662 7.284 89.7462 6.972C90.0262 6.66 90.3382 6.404 90.6822 6.204C91.0262 6.004 91.3902 5.856 91.7742 5.76C92.1662 5.664 92.5622 5.616 92.9622 5.616C93.6102 5.616 94.1862 5.72 94.6902 5.928C95.2022 6.128 95.6342 6.424 95.9862 6.816C96.3382 7.208 96.6062 7.692 96.7902 8.268C96.9742 8.844 97.0662 9.5 97.0662 10.236V18H94.7142V10.236C94.7142 9.324 94.5142 8.636 94.1142 8.172C93.7222 7.708 93.1462 7.476 92.3862 7.476C92.0502 7.476 91.7302 7.536 91.4262 7.656C91.1222 7.768 90.8542 7.94 90.6222 8.172C90.3982 8.404 90.2182 8.692 90.0822 9.036C89.9542 9.38 89.8902 9.78 89.8902 10.236V18H87.5382V10.236C87.5382 9.292 87.3502 8.596 86.9742 8.148C86.5982 7.7 86.0462 7.476 85.3182 7.476C84.8142 7.476 84.3462 7.608 83.9142 7.872C83.4822 8.136 83.0862 8.496 82.7262 8.952V18H80.3862ZM110.21 5.616C111.106 5.616 111.914 5.764 112.634 6.06C113.362 6.348 113.978 6.768 114.482 7.32C114.994 7.864 115.386 8.524 115.658 9.3C115.93 10.068 116.066 10.932 116.066 11.892C116.066 12.852 115.93 13.72 115.658 14.496C115.386 15.272 114.994 15.932 114.482 16.476C113.978 17.02 113.362 17.44 112.634 17.736C111.914 18.024 111.106 18.168 110.21 18.168C109.306 18.168 108.49 18.024 107.762 17.736C107.042 17.44 106.426 17.02 105.914 16.476C105.402 15.932 105.006 15.272 104.726 14.496C104.454 13.72 104.318 12.852 104.318 11.892C104.318 10.932 104.454 10.068 104.726 9.3C105.006 8.524 105.402 7.864 105.914 7.32C106.426 6.768 107.042 6.348 107.762 6.06C108.49 5.764 109.306 5.616 110.21 5.616ZM110.21 16.344C111.362 16.344 112.222 15.956 112.79 15.18C113.358 14.404 113.642 13.312 113.642 11.904C113.642 10.496 113.358 9.404 112.79 8.628C112.222 7.844 111.362 7.452 110.21 7.452C109.042 7.452 108.17 7.844 107.594 8.628C107.026 9.404 106.742 10.496 106.742 11.904C106.742 13.312 107.026 14.404 107.594 15.18C108.17 15.956 109.042 16.344 110.21 16.344ZM125.686 8.148C126.078 7.348 126.55 6.72 127.102 6.264C127.654 5.808 128.318 5.58 129.094 5.58C129.358 5.58 129.606 5.612 129.838 5.676C130.078 5.732 130.286 5.82 130.462 5.94L130.306 7.704C130.25 7.92 130.118 8.028 129.91 8.028C129.798 8.028 129.63 8.008 129.406 7.968C129.182 7.92 128.942 7.896 128.686 7.896C128.31 7.896 127.978 7.952 127.69 8.064C127.402 8.168 127.142 8.328 126.91 8.544C126.686 8.752 126.486 9.012 126.31 9.324C126.134 9.628 125.97 9.976 125.818 10.368V18H123.478V5.808H124.822C125.078 5.808 125.25 5.856 125.338 5.952C125.434 6.04 125.502 6.2 125.542 6.432L125.686 8.148ZM144.698 10.548C144.698 10.084 144.63 9.656 144.494 9.264C144.366 8.872 144.174 8.532 143.918 8.244C143.662 7.956 143.35 7.732 142.982 7.572C142.614 7.412 142.19 7.332 141.71 7.332C140.726 7.332 139.95 7.616 139.382 8.184C138.822 8.752 138.466 9.54 138.314 10.548H144.698ZM146.63 16.26C146.342 16.596 146.01 16.888 145.634 17.136C145.258 17.376 144.858 17.572 144.434 17.724C144.01 17.876 143.57 17.988 143.114 18.06C142.666 18.132 142.222 18.168 141.782 18.168C140.942 18.168 140.162 18.028 139.442 17.748C138.73 17.46 138.11 17.044 137.582 16.5C137.062 15.948 136.654 15.268 136.358 14.46C136.07 13.644 135.926 12.708 135.926 11.652C135.926 10.804 136.058 10.016 136.322 9.288C136.586 8.552 136.962 7.912 137.45 7.368C137.946 6.824 138.55 6.396 139.262 6.084C139.974 5.772 140.774 5.616 141.662 5.616C142.406 5.616 143.09 5.74 143.714 5.988C144.346 6.228 144.89 6.58 145.346 7.044C145.802 7.508 146.158 8.08 146.414 8.76C146.678 9.44 146.81 10.216 146.81 11.088C146.81 11.448 146.77 11.692 146.69 11.82C146.61 11.94 146.462 12 146.246 12H138.254C138.278 12.728 138.382 13.364 138.566 13.908C138.75 14.444 139.002 14.892 139.322 15.252C139.65 15.612 140.038 15.88 140.486 16.056C140.934 16.232 141.434 16.32 141.986 16.32C142.506 16.32 142.954 16.26 143.33 16.14C143.714 16.02 144.042 15.892 144.314 15.756C144.594 15.612 144.826 15.48 145.01 15.36C145.202 15.24 145.37 15.18 145.514 15.18C145.706 15.18 145.854 15.252 145.958 15.396L146.63 16.26Z" fill="#FFCE9F"/>
</svg>
