<svg width="442" height="117" viewBox="0 0 442 117" fill="none" xmlns="http://www.w3.org/2000/svg">
<path d="M82.7793 10.45L48.7293 75.55V115H35.0793V75.55L0.879297 10.45H16.0293L41.8293 63.4L67.6293 10.45H82.7793ZM185.077 32.8V115H171.427V102.85C168.827 107.05 165.177 110.35 160.477 112.75C155.877 115.05 150.777 116.2 145.177 116.2C138.777 116.2 133.027 114.9 127.927 112.3C122.827 109.6 118.777 105.6 115.777 100.3C112.877 95 111.427 88.55 111.427 80.95V32.8H124.927V79.15C124.927 87.25 126.977 93.5 131.077 97.9C135.177 102.2 140.777 104.35 147.877 104.35C155.177 104.35 160.927 102.1 165.127 97.6C169.327 93.1 171.427 86.55 171.427 77.95V32.8H185.077ZM252.224 116.35C245.924 116.35 240.274 115.3 235.274 113.2C230.274 111 226.324 108 223.424 104.2C220.524 100.3 218.924 95.85 218.624 90.85H232.724C233.124 94.95 235.024 98.3 238.424 100.9C241.924 103.5 246.474 104.8 252.074 104.8C257.274 104.8 261.374 103.65 264.374 101.35C267.374 99.05 268.874 96.15 268.874 92.65C268.874 89.05 267.274 86.4 264.074 84.7C260.874 82.9 255.924 81.15 249.224 79.45C243.124 77.85 238.124 76.25 234.224 74.65C230.424 72.95 227.124 70.5 224.324 67.3C221.624 64 220.274 59.7 220.274 54.4C220.274 50.2 221.524 46.35 224.024 42.85C226.524 39.35 230.074 36.6 234.674 34.6C239.274 32.5 244.524 31.45 250.424 31.45C259.524 31.45 266.874 33.75 272.474 38.35C278.074 42.95 281.074 49.25 281.474 57.25H267.824C267.524 52.95 265.774 49.5 262.574 46.9C259.474 44.3 255.274 43 249.974 43C245.074 43 241.174 44.05 238.274 46.15C235.374 48.25 233.924 51 233.924 54.4C233.924 57.1 234.774 59.35 236.474 61.15C238.274 62.85 240.474 64.25 243.074 65.35C245.774 66.35 249.474 67.5 254.174 68.8C260.074 70.4 264.874 72 268.574 73.6C272.274 75.1 275.424 77.4 278.024 80.5C280.724 83.6 282.124 87.65 282.224 92.65C282.224 97.15 280.974 101.2 278.474 104.8C275.974 108.4 272.424 111.25 267.824 113.35C263.324 115.35 258.124 116.35 252.224 116.35ZM323.543 19.45C320.943 19.45 318.743 18.55 316.943 16.75C315.143 14.95 314.243 12.75 314.243 10.15C314.243 7.54999 315.143 5.35 316.943 3.55C318.743 1.74999 320.943 0.849994 323.543 0.849994C326.043 0.849994 328.143 1.74999 329.843 3.55C331.643 5.35 332.543 7.54999 332.543 10.15C332.543 12.75 331.643 14.95 329.843 16.75C328.143 18.55 326.043 19.45 323.543 19.45ZM330.143 32.8V115H316.493V32.8H330.143ZM363.307 73.75C363.307 65.25 365.007 57.85 368.407 51.55C371.807 45.15 376.507 40.2 382.507 36.7C388.607 33.2 395.557 31.45 403.357 31.45C413.457 31.45 421.757 33.9 428.257 38.8C434.857 43.7 439.207 50.5 441.307 59.2H426.607C425.207 54.2 422.457 50.25 418.357 47.35C414.357 44.45 409.357 43 403.357 43C395.557 43 389.257 45.7 384.457 51.1C379.657 56.4 377.257 63.95 377.257 73.75C377.257 83.65 379.657 91.3 384.457 96.7C389.257 102.1 395.557 104.8 403.357 104.8C409.357 104.8 414.357 103.4 418.357 100.6C422.357 97.8 425.107 93.8 426.607 88.6H441.307C439.107 97 434.707 103.75 428.107 108.85C421.507 113.85 413.257 116.35 403.357 116.35C395.557 116.35 388.607 114.6 382.507 111.1C376.507 107.6 371.807 102.65 368.407 96.25C365.007 89.85 363.307 82.35 363.307 73.75Z" fill="url(#paint0_linear)"/>
<defs>
<linearGradient id="paint0_linear" x1="71.5667" y1="10" x2="221.261" y2="173.932" gradientUnits="userSpaceOnUse">
<stop stop-color="#FFCE9F"/>
<stop offset="1" stop-color="#E5A267"/>
</linearGradient>
</defs>
</svg>
