<svg width="206" height="55" viewBox="0 0 206 55" fill="none" xmlns="http://www.w3.org/2000/svg">
<path d="M38.55 5.21L22.66 35.59V54H16.29V35.59L0.33 5.21H7.4L19.44 29.92L31.48 5.21H38.55ZM86.2889 15.64V54H79.9189V48.33C78.7056 50.29 77.0022 51.83 74.8089 52.95C72.6622 54.0233 70.2822 54.56 67.6689 54.56C64.6822 54.56 61.9989 53.9533 59.6189 52.74C57.2389 51.48 55.3489 49.6133 53.9489 47.14C52.5956 44.6667 51.9189 41.6567 51.9189 38.11V15.64H58.2189V37.27C58.2189 41.05 59.1756 43.9667 61.0889 46.02C63.0022 48.0267 65.6156 49.03 68.9289 49.03C72.3356 49.03 75.0189 47.98 76.9789 45.88C78.9389 43.78 79.9189 40.7233 79.9189 36.71V15.64H86.2889ZM117.624 54.63C114.684 54.63 112.048 54.14 109.714 53.16C107.381 52.1333 105.538 50.7333 104.184 48.96C102.831 47.14 102.084 45.0633 101.944 42.73H108.524C108.711 44.6433 109.598 46.2067 111.184 47.42C112.818 48.6333 114.941 49.24 117.554 49.24C119.981 49.24 121.894 48.7033 123.294 47.63C124.694 46.5567 125.394 45.2033 125.394 43.57C125.394 41.89 124.648 40.6533 123.154 39.86C121.661 39.02 119.351 38.2033 116.224 37.41C113.378 36.6633 111.044 35.9167 109.224 35.17C107.451 34.3767 105.911 33.2333 104.604 31.74C103.344 30.2 102.714 28.1933 102.714 25.72C102.714 23.76 103.298 21.9633 104.464 20.33C105.631 18.6967 107.288 17.4133 109.434 16.48C111.581 15.5 114.031 15.01 116.784 15.01C121.031 15.01 124.461 16.0833 127.074 18.23C129.688 20.3767 131.088 23.3167 131.274 27.05H124.904C124.764 25.0433 123.948 23.4333 122.454 22.22C121.008 21.0067 119.048 20.4 116.574 20.4C114.288 20.4 112.468 20.89 111.114 21.87C109.761 22.85 109.084 24.1333 109.084 25.72C109.084 26.98 109.481 28.03 110.274 28.87C111.114 29.6633 112.141 30.3167 113.354 30.83C114.614 31.2967 116.341 31.8333 118.534 32.44C121.288 33.1867 123.528 33.9333 125.254 34.68C126.981 35.38 128.451 36.4533 129.664 37.9C130.924 39.3467 131.578 41.2367 131.624 43.57C131.624 45.67 131.041 47.56 129.874 49.24C128.708 50.92 127.051 52.25 124.904 53.23C122.804 54.1633 120.378 54.63 117.624 54.63ZM150.907 9.41C149.693 9.41 148.667 8.99 147.827 8.15C146.987 7.31 146.567 6.28333 146.567 5.07C146.567 3.85666 146.987 2.83 147.827 1.99C148.667 1.15 149.693 0.729997 150.907 0.729997C152.073 0.729997 153.053 1.15 153.847 1.99C154.687 2.83 155.107 3.85666 155.107 5.07C155.107 6.28333 154.687 7.31 153.847 8.15C153.053 8.99 152.073 9.41 150.907 9.41ZM153.987 15.64V54H147.617V15.64H153.987ZM169.463 34.75C169.463 30.7833 170.256 27.33 171.843 24.39C173.43 21.4033 175.623 19.0933 178.423 17.46C181.27 15.8267 184.513 15.01 188.153 15.01C192.866 15.01 196.74 16.1533 199.773 18.44C202.853 20.7267 204.883 23.9 205.863 27.96H199.003C198.35 25.6267 197.066 23.7833 195.153 22.43C193.286 21.0767 190.953 20.4 188.153 20.4C184.513 20.4 181.573 21.66 179.333 24.18C177.093 26.6533 175.973 30.1767 175.973 34.75C175.973 39.37 177.093 42.94 179.333 45.46C181.573 47.98 184.513 49.24 188.153 49.24C190.953 49.24 193.286 48.5867 195.153 47.28C197.02 45.9733 198.303 44.1067 199.003 41.68H205.863C204.836 45.6 202.783 48.75 199.703 51.13C196.623 53.4633 192.773 54.63 188.153 54.63C184.513 54.63 181.27 53.8133 178.423 52.18C175.623 50.5467 173.43 48.2367 171.843 45.25C170.256 42.2633 169.463 38.7633 169.463 34.75Z" fill="url(#paint0_linear)"/>
<defs>
<linearGradient id="paint0_linear" x1="35.1667" y1="5" x2="105.167" y2="79.6667" gradientUnits="userSpaceOnUse">
<stop stop-color="#FFCE9F"/>
<stop offset="1" stop-color="#E5A267"/>
</linearGradient>
</defs>
</svg>
