<svg width="45" height="42" viewBox="0 0 45 42" fill="none" xmlns="http://www.w3.org/2000/svg">
<path opacity="0.6" d="M2.2958 14.933C3.5685 13.5374 5.20409 12.6717 6.9722 12.4444V5.74927C6.9722 3.7086 7.90913 1.86458 9.47914 0.816522C10.9925 -0.193325 12.8372 -0.271236 14.4151 0.609384L35.5332 12.3829H42.3633C43.8179 12.3829 45 13.6737 45 15.26V26.7392C45 28.3255 43.8179 29.6163 42.3633 29.6163H35.5332L14.4151 41.3909C13.6855 41.7974 12.899 42 12.1148 42C11.2026 42 10.2921 41.7258 9.47914 41.1827C7.90913 40.1346 6.9722 38.2914 6.9722 36.2496V29.5548C5.20409 29.3278 3.5685 28.4618 2.2958 27.0662C0.815735 25.4417 3.57628e-07 23.2867 3.57628e-07 20.9996C3.57628e-07 18.7125 0.815735 16.5575 2.2958 14.933ZM36.1996 27.6981H38.8106V25.9672C38.8106 25.4368 39.2044 25.0083 39.6895 25.0083C40.1756 25.0083 40.5684 25.4368 40.5684 25.9672V27.6981H42.3633C42.8484 27.6981 43.2422 27.2684 43.2422 26.7392V15.26C43.2422 14.7315 42.8484 14.3008 42.3633 14.3008H36.1996V27.6981ZM8.73001 36.2496C8.73001 37.6183 9.35349 38.8506 10.3958 39.5469C11.3976 40.2152 12.5711 40.265 13.6152 39.6829L34.4418 28.0704V13.9288L13.6152 2.31631C12.5711 1.73385 11.3976 1.78404 10.3958 2.45228C9.35349 3.14861 8.73001 4.38095 8.73001 5.74927V12.4279C8.7925 12.4346 8.85498 12.4425 8.91644 12.4511C8.96656 12.4575 9.01669 12.4653 9.06681 12.474C12.1042 12.922 14.6976 15.435 15.5364 18.6361C16.3181 21.6188 15.5323 24.9004 13.5176 27.089C12.2309 28.4869 10.5335 29.3623 8.73001 29.5721V36.2496ZM7.84939 27.6973C10.7306 27.6973 13.3192 25.5244 13.9406 22.4297C14.4608 19.8388 13.4857 17.1059 11.515 15.5619C10.4604 14.7356 9.18354 14.2974 7.88647 14.3008C7.87514 14.3019 7.86278 14.3019 7.85145 14.3019C4.49135 14.3401 1.75781 17.3438 1.75781 20.9996C1.75781 24.6543 4.48929 27.6561 7.84939 27.6973C4.48929 27.6561 7.86106 27.6973 7.84939 27.6973Z" fill="white"/>
<path d="M11.3115 22.05H4.49886C4.02913 22.05 3.64844 21.5796 3.64844 21C3.64844 20.4203 4.02913 19.95 4.49886 19.95H11.3115C11.7813 19.95 12.1619 20.4203 12.1619 21C12.1619 21.5796 11.7813 22.05 11.3115 22.05Z" fill="#E5A267"/>
</svg>
