<svg width="888" height="965" viewBox="0 0 888 965" fill="none" xmlns="http://www.w3.org/2000/svg">
<path d="M179.84 733.435C179.84 733.435 181.327 702.276 211.812 705.898Z" fill="#353E4D"/>
<path d="M171.227 703.784C179.653 703.784 186.484 696.953 186.484 688.526C186.484 680.1 179.653 673.269 171.227 673.269C162.801 673.269 155.97 680.1 155.97 688.526C155.97 696.953 162.801 703.784 171.227 703.784Z" fill="#F7C89A"/>
<path d="M173.051 714.218H168.744V744.365H173.051V714.218Z" fill="#353E4D"/>
<path d="M682.287 738.757C682.287 738.757 683.774 707.599 714.258 711.22Z" fill="#353E4D"/>
<path d="M673.673 709.106C682.1 709.106 688.93 702.275 688.93 693.849C688.93 685.423 682.1 678.592 673.673 678.592C665.247 678.592 658.416 685.423 658.416 693.849C658.416 702.275 665.247 709.106 673.673 709.106Z" fill="#F7C89A"/>
<path d="M675.497 719.541H671.191V749.688H675.497V719.541Z" fill="#353E4D"/>
<path d="M755.738 744.08C755.738 744.08 757.225 712.921 787.709 716.543Z" fill="#353E4D"/>
<path d="M747.124 714.429C755.55 714.429 762.381 707.598 762.381 699.171C762.381 690.745 755.55 683.914 747.124 683.914C738.698 683.914 731.867 690.745 731.867 699.171C731.867 707.598 738.698 714.429 747.124 714.429Z" fill="#F7C89A"/>
<path d="M748.948 724.863H744.642V755.01H748.948V724.863Z" fill="#353E4D"/>
<path d="M300.129 718.532C300.129 718.532 301.616 687.373 332.101 690.995Z" fill="#353E4D"/>
<path d="M291.516 688.88C299.942 688.88 306.773 682.05 306.773 673.623C306.773 665.197 299.942 658.366 291.516 658.366C283.09 658.366 276.259 665.197 276.259 673.623C276.259 682.05 283.09 688.88 291.516 688.88Z" fill="#F7C89A"/>
<path d="M293.34 699.315H289.033V729.462H293.34V699.315Z" fill="#353E4D"/>
<path d="M73.3899 723.854C73.3899 723.854 74.8769 692.696 105.361 696.317Z" fill="#353E4D"/>
<path d="M64.7764 694.203C73.2027 694.203 80.0335 687.372 80.0335 678.946C80.0335 670.52 73.2027 663.689 64.7764 663.689C56.3501 663.689 49.5193 670.52 49.5193 678.946C49.5193 687.372 56.3501 694.203 64.7764 694.203Z" fill="#F7C89A"/>
<path d="M66.6007 704.638H62.2939V734.785H66.6007V704.638Z" fill="#353E4D"/>
<path d="M442.277 669.71C534.082 669.71 608.505 595.287 608.505 503.482C608.505 411.677 534.082 337.254 442.277 337.254C350.472 337.254 276.049 411.677 276.049 503.482C276.049 595.287 350.472 669.71 442.277 669.71Z" fill="url(#paint0_linear)"/>
<path d="M337.626 516.826C341.754 511.883 346.918 507.908 352.751 505.18C358.585 502.451 364.946 501.037 371.386 501.037C377.825 501.037 384.187 502.451 390.02 505.18C395.853 507.908 401.017 511.883 405.145 516.826C412.209 510.082 417.092 501.377 419.164 491.833C421.235 482.289 420.401 472.343 416.769 463.278C413.136 454.212 406.872 446.442 398.783 440.969C390.694 435.496 381.152 432.571 371.386 432.571C361.619 432.571 352.077 435.496 343.988 440.969C335.899 446.442 329.635 454.212 326.002 463.278C322.37 472.343 321.536 482.289 323.608 491.833C325.679 501.377 330.562 510.082 337.626 516.826V516.826Z" fill="white"/>
<path d="M469.631 516.826C473.759 511.883 478.922 507.908 484.756 505.179C490.589 502.451 496.95 501.037 503.39 501.037C509.83 501.037 516.191 502.451 522.025 505.179C527.858 507.908 533.021 511.883 537.15 516.826C544.214 510.082 549.096 501.377 551.168 491.833C553.24 482.289 552.406 472.343 548.773 463.278C545.141 454.212 538.876 446.442 530.788 440.969C522.699 435.496 513.156 432.571 503.39 432.571C493.624 432.571 484.081 435.496 475.993 440.969C467.904 446.442 461.64 454.212 458.007 463.278C454.375 472.343 453.54 482.289 455.612 491.833C457.684 501.377 462.567 510.082 469.631 516.826Z" fill="white"/>
<path d="M354.707 481.632C363.996 481.632 371.525 474.102 371.525 464.814C371.525 455.526 363.996 447.996 354.707 447.996C345.419 447.996 337.889 455.526 337.889 464.814C337.889 474.102 345.419 481.632 354.707 481.632Z" fill="#353E4D"/>
<path d="M486.707 481.632C495.996 481.632 503.525 474.102 503.525 464.814C503.525 455.526 495.996 447.996 486.707 447.996C477.419 447.996 469.889 455.526 469.889 464.814C469.889 474.102 477.419 481.632 486.707 481.632Z" fill="#353E4D"/>
<path d="M322.495 564.595C333.295 564.595 342.051 555.84 342.051 545.039C342.051 534.238 333.295 525.483 322.495 525.483C311.694 525.483 302.938 534.238 302.938 545.039C302.938 555.84 311.694 564.595 322.495 564.595Z" fill="#F7C89A"/>
<path d="M547.392 564.595C558.192 564.595 566.948 555.84 566.948 545.039C566.948 534.238 558.192 525.483 547.392 525.483C536.591 525.483 527.835 534.238 527.835 545.039C527.835 555.84 536.591 564.595 547.392 564.595Z" fill="#F7C89A"/>
<path d="M434.943 505.926L420.276 569.484L444.721 545.039L434.943 505.926Z" fill="#F7C89A"/>
<path d="M510.307 750.38L493.655 736.404L494.043 750.38H488.871L488.458 735.602L465.975 750.38H456.563L488.29 729.526L487.061 685.737L486.143 652.666L491.302 652.524L492.233 685.737L493.461 729.487L518.348 750.38H510.307Z" fill="#353E4D"/>
<path d="M432.076 750.38L415.424 736.404L415.812 750.38H410.654L410.24 735.602L387.757 750.38H378.345L410.059 729.526L408.831 685.737L407.913 652.666L413.084 652.524L414.015 685.737L415.23 729.487L440.118 750.38H432.076Z" fill="#353E4D"/>
<path d="M444.721 325.031C440.16 325.031 436.137 328.574 433.446 334.016C431.075 325.833 426.094 320.142 420.276 320.142C419.881 320.181 419.488 320.247 419.102 320.339C416.866 311.602 411.668 305.475 405.609 305.475C397.508 305.475 390.942 316.419 390.942 329.92C390.942 343.421 397.508 354.366 405.609 354.366C406.004 354.326 406.397 354.26 406.783 354.168C409.019 362.905 414.217 369.033 420.276 369.033C424.837 369.033 428.861 365.49 431.551 360.048C433.922 368.231 438.904 373.922 444.721 373.922C452.822 373.922 459.389 362.977 459.389 349.476C459.389 335.976 452.822 325.031 444.721 325.031Z" fill="#353E4D"/>
<path d="M286.25 566.475C279.83 566.475 273.472 565.21 267.541 562.754C261.609 560.297 256.219 556.695 251.679 552.155C247.139 547.615 243.538 542.226 241.081 536.294C238.624 530.362 237.36 524.005 237.36 517.584V493.139C237.36 480.172 242.511 467.737 251.679 458.568C260.848 449.399 273.284 444.248 286.25 444.248V444.248V566.475Z" fill="#F7C89A"/>
<path d="M598.303 444.248C604.724 444.248 611.081 445.513 617.013 447.97C622.945 450.427 628.334 454.028 632.874 458.568C637.414 463.108 641.016 468.498 643.473 474.429C645.93 480.361 647.194 486.719 647.194 493.139V517.584C647.194 524.005 645.93 530.362 643.473 536.294C641.016 542.226 637.414 547.615 632.874 552.155C628.334 556.695 622.945 560.296 617.013 562.753C611.081 565.21 604.724 566.475 598.304 566.475V566.475V444.248H598.303Z" fill="#F7C89A"/>
<path d="M623.923 496.98H616.166C616.166 398.603 536.13 318.567 437.752 318.567C339.375 318.567 259.338 398.603 259.338 496.98H251.581C251.581 394.325 335.097 310.81 437.752 310.81C540.408 310.81 623.923 394.325 623.923 496.98Z" fill="#F7C89A"/>
<path opacity="0.6" d="M171.547 347.473L171.549 347.47L167.904 345.953L152.528 339.452L147.016 337.123L146.593 338.19L139.189 356.884L160.026 365.704L160.136 365.803L158.731 369.114C158.539 369.416 158.375 369.736 158.242 370.069C157.258 372.553 159.116 375.023 160.872 375.718C162.628 376.414 164.849 374.965 165.833 372.481C166.803 370.031 165.855 366.919 164.143 366.167L164.145 366.164L160.501 364.647L148.034 359.8L155.157 341.815L154.101 341.397L146.976 359.389L145.434 358.79L152.588 340.728L152.776 340.807L167.43 347.01L167.539 347.109L166.135 350.419C165.943 350.722 165.779 351.042 165.646 351.375C164.662 353.858 166.52 356.329 168.276 357.024C170.032 357.72 172.253 356.271 173.237 353.787C174.207 351.337 173.259 348.225 171.547 347.473Z" fill="white"/>
<path opacity="0.6" d="M243.667 393.367C236.103 389.043 237.617 379.552 237.617 379.552C237.426 373.387 232.333 374.26 232.333 374.26L230.479 374.683C229.618 374.283 228.669 374.108 227.722 374.173L224.902 374.648C231.324 376.156 230.796 381.528 230.796 381.528L231.696 387.809L214.87 381.021L216.802 376.466C217.069 376.046 217.297 375.602 217.482 375.139C218.848 371.69 216.268 368.259 213.829 367.293C211.39 366.327 208.305 368.34 206.939 371.789C205.591 375.192 206.908 379.514 209.285 380.558L209.283 380.562L214.345 382.67L214.382 382.551L243.667 393.367ZM235.123 382.331L235.662 388.343C233.757 385.67 232.862 382.408 233.137 379.137C233.092 377.973 232.699 376.85 232.01 375.911C233.07 376.591 233.922 377.55 234.471 378.683C235.02 379.816 235.246 381.078 235.123 382.331V382.331Z" fill="white"/>
<path opacity="0.6" d="M115.319 304.456L115.321 304.452L110.259 302.344L89.105 294.121L94.4442 289.37C95.4887 287.978 97.0312 287.043 98.749 286.762C100.467 286.48 102.227 286.874 103.661 287.86L102.004 285.398C102.004 285.398 98.8893 281.274 94.5292 285.637C94.5292 285.637 89.1344 293.59 80.6604 291.563L109.601 303.812L109.753 303.95L107.802 308.548C107.535 308.969 107.308 309.413 107.122 309.875C105.756 313.324 108.336 316.755 110.775 317.722C113.214 318.688 116.299 316.674 117.665 313.225C119.013 309.823 117.696 305.5 115.319 304.456Z" fill="white"/>
<path opacity="0.6" d="M192.766 277.541L190.816 282.14C190.549 282.56 190.321 283.004 190.135 283.467C188.769 286.916 191.349 290.347 193.789 291.313C196.228 292.279 199.313 290.266 200.679 286.817C202.026 283.414 200.709 279.092 198.332 278.048L198.335 278.044L193.273 275.936L175.958 269.205L185.851 244.225L184.385 243.644L174.488 268.633L172.347 267.801L182.282 242.714L182.544 242.825L202.897 251.439L203.049 251.577L201.099 256.175C200.832 256.596 200.604 257.04 200.419 257.502C199.052 260.952 201.633 264.383 204.072 265.349C206.511 266.315 209.596 264.302 210.962 260.852C212.31 257.45 210.993 253.128 208.616 252.083L208.618 252.079L203.556 249.971L182.871 241.227L182.87 241.227L182.2 240.943L174.544 237.707L163.674 265.155L192.614 277.404L192.766 277.541Z" fill="white"/>
<path opacity="0.6" d="M101.054 136.972L101.057 136.965L92.3439 133.336L55.9277 119.18L65.1188 111.003C65.1188 111.003 71.2325 102.52 80.985 108.403L78.133 104.164C78.133 104.164 72.7708 97.0655 65.2652 104.576C65.2652 104.576 55.9783 118.267 41.3909 114.777L91.2098 135.863L91.4713 136.1L88.1142 144.016C87.6547 144.74 87.2626 145.505 86.9429 146.3C84.5912 152.238 89.0328 158.145 93.2316 159.808C97.4305 161.471 102.741 158.005 105.093 152.067C107.412 146.21 105.145 138.77 101.054 136.972Z" fill="white"/>
<path opacity="0.6" d="M127.793 255.885C109.709 245.545 113.328 222.855 113.328 222.855C112.873 208.114 100.694 210.201 100.694 210.201L96.2614 211.212C94.2024 210.257 91.9351 209.837 89.6705 209.993L82.928 211.128C98.281 214.736 97.0196 227.579 97.0196 227.579L99.1705 242.596L58.9415 226.367L63.5605 215.476C64.1988 214.471 64.7434 213.409 65.1875 212.303C68.4538 204.056 62.2847 195.853 56.4528 193.543C50.6209 191.233 43.2454 196.047 39.979 204.294C36.7572 212.428 39.9058 222.763 45.5889 225.26L45.5841 225.27L57.6858 230.309L57.776 230.024L127.793 255.885ZM107.364 229.499L108.659 243.923C101.063 233.84 102.616 221.861 102.616 221.861C102.509 219.079 101.57 216.393 99.9216 214.15C108.647 219.371 107.364 229.499 107.364 229.499H107.364Z" fill="white"/>
<path opacity="0.8" d="M133.315 862.378C130.795 862.378 128.527 861.946 126.511 861.082C124.495 860.182 122.911 858.922 121.759 857.302C120.607 855.682 120.031 853.792 120.031 851.632H126.619C126.763 853.252 127.393 854.584 128.509 855.628C129.661 856.672 131.263 857.194 133.315 857.194C135.439 857.194 137.095 856.69 138.283 855.682C139.471 854.638 140.065 853.306 140.065 851.686C140.065 850.426 139.687 849.4 138.931 848.608C138.211 847.816 137.293 847.204 136.177 846.772C135.097 846.34 133.585 845.872 131.641 845.368C129.193 844.72 127.195 844.072 125.647 843.424C124.135 842.74 122.839 841.696 121.759 840.292C120.679 838.888 120.139 837.016 120.139 834.676C120.139 832.516 120.679 830.626 121.759 829.006C122.839 827.386 124.351 826.144 126.295 825.28C128.239 824.416 130.489 823.984 133.045 823.984C136.681 823.984 139.651 824.902 141.955 826.738C144.295 828.538 145.591 831.022 145.843 834.19H139.039C138.931 832.822 138.283 831.652 137.095 830.68C135.907 829.708 134.341 829.222 132.397 829.222C130.633 829.222 129.193 829.672 128.077 830.572C126.961 831.472 126.403 832.768 126.403 834.46C126.403 835.612 126.745 836.566 127.429 837.322C128.149 838.042 129.049 838.618 130.129 839.05C131.209 839.482 132.685 839.95 134.557 840.454C137.041 841.138 139.057 841.822 140.605 842.506C142.189 843.19 143.521 844.252 144.601 845.692C145.717 847.096 146.275 848.986 146.275 851.362C146.275 853.27 145.753 855.07 144.709 856.762C143.701 858.454 142.207 859.822 140.227 860.866C138.283 861.874 135.979 862.378 133.315 862.378ZM191.609 846.394C191.609 847.51 191.537 848.518 191.393 849.418H168.659C168.839 851.794 169.721 853.702 171.305 855.142C172.889 856.582 174.833 857.302 177.137 857.302C180.449 857.302 182.789 855.916 184.157 853.144H190.799C189.899 855.88 188.261 858.13 185.885 859.894C183.545 861.622 180.629 862.486 177.137 862.486C174.293 862.486 171.737 861.856 169.469 860.596C167.237 859.3 165.473 857.5 164.177 855.196C162.917 852.856 162.287 850.156 162.287 847.096C162.287 844.036 162.899 841.354 164.123 839.05C165.383 836.71 167.129 834.91 169.361 833.65C171.629 832.39 174.221 831.76 177.137 831.76C179.945 831.76 182.447 832.372 184.643 833.596C186.839 834.82 188.549 836.548 189.773 838.78C190.997 840.976 191.609 843.514 191.609 846.394ZM185.183 844.45C185.147 842.182 184.337 840.364 182.753 838.996C181.169 837.628 179.207 836.944 176.867 836.944C174.743 836.944 172.925 837.628 171.413 838.996C169.901 840.328 169.001 842.146 168.713 844.45H185.183ZM206.415 846.988C206.415 844 207.027 841.354 208.251 839.05C209.511 836.746 211.203 834.964 213.327 833.704C215.487 832.408 217.863 831.76 220.455 831.76C222.795 831.76 224.829 832.228 226.557 833.164C228.321 834.064 229.725 835.198 230.769 836.566V832.246H236.979V862H230.769V857.572C229.725 858.976 228.303 860.146 226.503 861.082C224.703 862.018 222.651 862.486 220.347 862.486C217.791 862.486 215.451 861.838 213.327 860.542C211.203 859.21 209.511 857.374 208.251 855.034C207.027 852.658 206.415 849.976 206.415 846.988ZM230.769 847.096C230.769 845.044 230.337 843.262 229.473 841.75C228.645 840.238 227.547 839.086 226.179 838.294C224.811 837.502 223.335 837.106 221.751 837.106C220.167 837.106 218.691 837.502 217.323 838.294C215.955 839.05 214.839 840.184 213.975 841.696C213.147 843.172 212.733 844.936 212.733 846.988C212.733 849.04 213.147 850.84 213.975 852.388C214.839 853.936 215.955 855.124 217.323 855.952C218.727 856.744 220.203 857.14 221.751 857.14C223.335 857.14 224.811 856.744 226.179 855.952C227.547 855.16 228.645 854.008 229.473 852.496C230.337 850.948 230.769 849.148 230.769 847.096ZM262.021 836.566C262.921 835.054 264.109 833.884 265.585 833.056C267.097 832.192 268.879 831.76 270.931 831.76V838.132H269.365C266.953 838.132 265.117 838.744 263.857 839.968C262.633 841.192 262.021 843.316 262.021 846.34V862H255.865V832.246H262.021V836.566ZM285.337 847.096C285.337 844.036 285.949 841.354 287.173 839.05C288.433 836.71 290.161 834.91 292.357 833.65C294.553 832.39 297.073 831.76 299.917 831.76C303.517 831.76 306.487 832.624 308.827 834.352C311.203 836.044 312.805 838.474 313.633 841.642H306.991C306.451 840.166 305.587 839.014 304.399 838.186C303.211 837.358 301.717 836.944 299.917 836.944C297.397 836.944 295.381 837.844 293.869 839.644C292.393 841.408 291.655 843.892 291.655 847.096C291.655 850.3 292.393 852.802 293.869 854.602C295.381 856.402 297.397 857.302 299.917 857.302C303.481 857.302 305.839 855.736 306.991 852.604H313.633C312.769 855.628 311.149 858.04 308.773 859.84C306.397 861.604 303.445 862.486 299.917 862.486C297.073 862.486 294.553 861.856 292.357 860.596C290.161 859.3 288.433 857.5 287.173 855.196C285.949 852.856 285.337 850.156 285.337 847.096ZM345.958 831.76C348.226 831.76 350.242 832.246 352.006 833.218C353.806 834.19 355.21 835.63 356.218 837.538C357.262 839.446 357.784 841.75 357.784 844.45V862H351.682V845.368C351.682 842.704 351.016 840.67 349.684 839.266C348.352 837.826 346.534 837.106 344.23 837.106C341.926 837.106 340.09 837.826 338.722 839.266C337.39 840.67 336.724 842.704 336.724 845.368V862H330.568V822.04H336.724V835.702C337.768 834.442 339.082 833.47 340.666 832.786C342.286 832.102 344.05 831.76 345.958 831.76ZM413.738 837.268H408.23V862H402.02V837.268H398.51V832.246H402.02V830.14C402.02 826.72 402.92 824.236 404.72 822.688C406.556 821.104 409.418 820.312 413.306 820.312V825.442C411.434 825.442 410.12 825.802 409.364 826.522C408.608 827.206 408.23 828.412 408.23 830.14V832.246H413.738V837.268ZM442.9 862.486C440.092 862.486 437.554 861.856 435.286 860.596C433.018 859.3 431.236 857.5 429.94 855.196C428.644 852.856 427.996 850.156 427.996 847.096C427.996 844.072 428.662 841.39 429.994 839.05C431.326 836.71 433.144 834.91 435.448 833.65C437.752 832.39 440.326 831.76 443.17 831.76C446.014 831.76 448.588 832.39 450.892 833.65C453.196 834.91 455.014 836.71 456.346 839.05C457.678 841.39 458.344 844.072 458.344 847.096C458.344 850.12 457.66 852.802 456.292 855.142C454.924 857.482 453.052 859.3 450.676 860.596C448.336 861.856 445.744 862.486 442.9 862.486ZM442.9 857.14C444.484 857.14 445.96 856.762 447.328 856.006C448.732 855.25 449.866 854.116 450.73 852.604C451.594 851.092 452.026 849.256 452.026 847.096C452.026 844.936 451.612 843.118 450.784 841.642C449.956 840.13 448.858 838.996 447.49 838.24C446.122 837.484 444.646 837.106 443.062 837.106C441.478 837.106 440.002 837.484 438.634 838.24C437.302 838.996 436.24 840.13 435.448 841.642C434.656 843.118 434.26 844.936 434.26 847.096C434.26 850.3 435.07 852.784 436.69 854.548C438.346 856.276 440.416 857.14 442.9 857.14ZM481.385 836.566C482.285 835.054 483.473 833.884 484.949 833.056C486.461 832.192 488.243 831.76 490.295 831.76V838.132H488.729C486.317 838.132 484.481 838.744 483.221 839.968C481.997 841.192 481.385 843.316 481.385 846.34V862H475.229V832.246H481.385V836.566ZM567.599 831.76C569.939 831.76 572.027 832.246 573.863 833.218C575.735 834.19 577.193 835.63 578.237 837.538C579.317 839.446 579.857 841.75 579.857 844.45V862H573.755V845.368C573.755 842.704 573.089 840.67 571.757 839.266C570.425 837.826 568.607 837.106 566.303 837.106C563.999 837.106 562.163 837.826 560.795 839.266C559.463 840.67 558.797 842.704 558.797 845.368V862H552.695V845.368C552.695 842.704 552.029 840.67 550.697 839.266C549.365 837.826 547.547 837.106 545.243 837.106C542.939 837.106 541.103 837.826 539.735 839.266C538.403 840.67 537.737 842.704 537.737 845.368V862H531.581V832.246H537.737V835.648C538.745 834.424 540.023 833.47 541.571 832.786C543.119 832.102 544.775 831.76 546.539 831.76C548.915 831.76 551.039 832.264 552.911 833.272C554.783 834.28 556.223 835.738 557.231 837.646C558.131 835.846 559.535 834.424 561.443 833.38C563.351 832.3 565.403 831.76 567.599 831.76ZM625.437 832.246V862H619.281V858.49C618.309 859.714 617.031 860.686 615.447 861.406C613.899 862.09 612.243 862.432 610.479 862.432C608.139 862.432 606.033 861.946 604.161 860.974C602.325 860.002 600.867 858.562 599.787 856.654C598.743 854.746 598.221 852.442 598.221 849.742V832.246H604.323V848.824C604.323 851.488 604.989 853.54 606.321 854.98C607.653 856.384 609.471 857.086 611.775 857.086C614.079 857.086 615.897 856.384 617.229 854.98C618.597 853.54 619.281 851.488 619.281 848.824V832.246H625.437ZM655.159 862.486C652.819 862.486 650.713 862.072 648.841 861.244C647.005 860.38 645.547 859.228 644.467 857.788C643.387 856.312 642.811 854.674 642.739 852.874H649.111C649.219 854.134 649.813 855.196 650.893 856.06C652.009 856.888 653.395 857.302 655.051 857.302C656.779 857.302 658.111 856.978 659.047 856.33C660.019 855.646 660.505 854.782 660.505 853.738C660.505 852.622 659.965 851.794 658.885 851.254C657.841 850.714 656.167 850.12 653.863 849.472C651.631 848.86 649.813 848.266 648.409 847.69C647.005 847.114 645.781 846.232 644.737 845.044C643.729 843.856 643.225 842.29 643.225 840.346C643.225 838.762 643.693 837.322 644.629 836.026C645.565 834.694 646.897 833.65 648.625 832.894C650.389 832.138 652.405 831.76 654.673 831.76C658.057 831.76 660.775 832.624 662.827 834.352C664.915 836.044 666.031 838.366 666.175 841.318H660.019C659.911 839.986 659.371 838.924 658.399 838.132C657.427 837.34 656.113 836.944 654.457 836.944C652.837 836.944 651.595 837.25 650.731 837.862C649.867 838.474 649.435 839.284 649.435 840.292C649.435 841.084 649.723 841.75 650.299 842.29C650.875 842.83 651.577 843.262 652.405 843.586C653.233 843.874 654.457 844.252 656.077 844.72C658.237 845.296 660.001 845.89 661.369 846.502C662.773 847.078 663.979 847.942 664.987 849.094C665.995 850.246 666.517 851.776 666.553 853.684C666.553 855.376 666.085 856.888 665.149 858.22C664.213 859.552 662.881 860.596 661.153 861.352C659.461 862.108 657.463 862.486 655.159 862.486ZM687.137 828.304C686.021 828.304 685.085 827.926 684.329 827.17C683.573 826.414 683.195 825.478 683.195 824.362C683.195 823.246 683.573 822.31 684.329 821.554C685.085 820.798 686.021 820.42 687.137 820.42C688.217 820.42 689.135 820.798 689.891 821.554C690.647 822.31 691.025 823.246 691.025 824.362C691.025 825.478 690.647 826.414 689.891 827.17C689.135 827.926 688.217 828.304 687.137 828.304ZM690.161 832.246V862H684.005V832.246H690.161ZM706.991 847.096C706.991 844.036 707.603 841.354 708.827 839.05C710.087 836.71 711.815 834.91 714.011 833.65C716.207 832.39 718.727 831.76 721.571 831.76C725.171 831.76 728.141 832.624 730.481 834.352C732.857 836.044 734.459 838.474 735.287 841.642H728.645C728.105 840.166 727.241 839.014 726.053 838.186C724.865 837.358 723.371 836.944 721.571 836.944C719.051 836.944 717.035 837.844 715.523 839.644C714.047 841.408 713.309 843.892 713.309 847.096C713.309 850.3 714.047 852.802 715.523 854.602C717.035 856.402 719.051 857.302 721.571 857.302C725.135 857.302 727.493 855.736 728.645 852.604H735.287C734.423 855.628 732.803 858.04 730.427 859.84C728.051 861.604 725.099 862.486 721.571 862.486C718.727 862.486 716.207 861.856 714.011 860.596C711.815 859.3 710.087 857.5 708.827 855.196C707.603 852.856 706.991 850.156 706.991 847.096ZM758.972 854.602L752.438 869.506H748.442L752.276 854.602H758.972ZM61.1214 927.988C61.1214 925 61.7334 922.354 62.9574 920.05C64.2174 917.746 65.9094 915.964 68.0334 914.704C70.1934 913.408 72.5694 912.76 75.1614 912.76C77.5014 912.76 79.5354 913.228 81.2634 914.164C83.0274 915.064 84.4314 916.198 85.4754 917.566V913.246H91.6854V943H85.4754V938.572C84.4314 939.976 83.0094 941.146 81.2094 942.082C79.4094 943.018 77.3574 943.486 75.0534 943.486C72.4974 943.486 70.1574 942.838 68.0334 941.542C65.9094 940.21 64.2174 938.374 62.9574 936.034C61.7334 933.658 61.1214 930.976 61.1214 927.988ZM85.4754 928.096C85.4754 926.044 85.0434 924.262 84.1794 922.75C83.3514 921.238 82.2534 920.086 80.8854 919.294C79.5174 918.502 78.0414 918.106 76.4574 918.106C74.8734 918.106 73.3974 918.502 72.0294 919.294C70.6614 920.05 69.5454 921.184 68.6814 922.696C67.8534 924.172 67.4394 925.936 67.4394 927.988C67.4394 930.04 67.8534 931.84 68.6814 933.388C69.5454 934.936 70.6614 936.124 72.0294 936.952C73.4334 937.744 74.9094 938.14 76.4574 938.14C78.0414 938.14 79.5174 937.744 80.8854 936.952C82.2534 936.16 83.3514 935.008 84.1794 933.496C85.0434 931.948 85.4754 930.148 85.4754 928.096ZM116.727 917.566C117.627 916.054 118.815 914.884 120.291 914.056C121.803 913.192 123.585 912.76 125.637 912.76V919.132H124.071C121.659 919.132 119.823 919.744 118.563 920.968C117.339 922.192 116.727 924.316 116.727 927.34V943H110.571V913.246H116.727V917.566ZM149.278 918.268V934.738C149.278 935.854 149.53 936.664 150.034 937.168C150.574 937.636 151.474 937.87 152.734 937.87H156.514V943H151.654C148.882 943 146.758 942.352 145.282 941.056C143.806 939.76 143.068 937.654 143.068 934.738V918.268H139.558V913.246H143.068V905.848H149.278V913.246H156.514V918.268H149.278ZM176.12 909.304C175.004 909.304 174.068 908.926 173.312 908.17C172.556 907.414 172.178 906.478 172.178 905.362C172.178 904.246 172.556 903.31 173.312 902.554C174.068 901.798 175.004 901.42 176.12 901.42C177.2 901.42 178.118 901.798 178.874 902.554C179.63 903.31 180.008 904.246 180.008 905.362C180.008 906.478 179.63 907.414 178.874 908.17C178.118 908.926 177.2 909.304 176.12 909.304ZM179.144 913.246V943H172.988V913.246H179.144ZM208.826 943.486C206.486 943.486 204.38 943.072 202.508 942.244C200.672 941.38 199.214 940.228 198.134 938.788C197.054 937.312 196.478 935.674 196.406 933.874H202.778C202.886 935.134 203.48 936.196 204.56 937.06C205.676 937.888 207.062 938.302 208.718 938.302C210.446 938.302 211.778 937.978 212.714 937.33C213.686 936.646 214.172 935.782 214.172 934.738C214.172 933.622 213.632 932.794 212.552 932.254C211.508 931.714 209.834 931.12 207.53 930.472C205.298 929.86 203.48 929.266 202.076 928.69C200.672 928.114 199.448 927.232 198.404 926.044C197.396 924.856 196.892 923.29 196.892 921.346C196.892 919.762 197.36 918.322 198.296 917.026C199.232 915.694 200.564 914.65 202.292 913.894C204.056 913.138 206.072 912.76 208.34 912.76C211.724 912.76 214.442 913.624 216.494 915.352C218.582 917.044 219.698 919.366 219.842 922.318H213.686C213.578 920.986 213.038 919.924 212.066 919.132C211.094 918.34 209.78 917.944 208.124 917.944C206.504 917.944 205.262 918.25 204.398 918.862C203.534 919.474 203.102 920.284 203.102 921.292C203.102 922.084 203.39 922.75 203.966 923.29C204.542 923.83 205.244 924.262 206.072 924.586C206.9 924.874 208.124 925.252 209.744 925.72C211.904 926.296 213.668 926.89 215.036 927.502C216.44 928.078 217.646 928.942 218.654 930.094C219.662 931.246 220.184 932.776 220.22 934.684C220.22 936.376 219.752 937.888 218.816 939.22C217.88 940.552 216.548 941.596 214.82 942.352C213.128 943.108 211.13 943.486 208.826 943.486ZM244.853 918.268V934.738C244.853 935.854 245.105 936.664 245.609 937.168C246.149 937.636 247.049 937.87 248.309 937.87H252.089V943H247.229C244.457 943 242.333 942.352 240.857 941.056C239.381 939.76 238.643 937.654 238.643 934.738V918.268H235.133V913.246H238.643V905.848H244.853V913.246H252.089V918.268H244.853ZM279.363 943.486C277.023 943.486 274.917 943.072 273.045 942.244C271.209 941.38 269.751 940.228 268.671 938.788C267.591 937.312 267.015 935.674 266.943 933.874H273.315C273.423 935.134 274.017 936.196 275.097 937.06C276.213 937.888 277.599 938.302 279.255 938.302C280.983 938.302 282.315 937.978 283.251 937.33C284.223 936.646 284.709 935.782 284.709 934.738C284.709 933.622 284.169 932.794 283.089 932.254C282.045 931.714 280.371 931.12 278.067 930.472C275.835 929.86 274.017 929.266 272.613 928.69C271.209 928.114 269.985 927.232 268.941 926.044C267.933 924.856 267.429 923.29 267.429 921.346C267.429 919.762 267.897 918.322 268.833 917.026C269.769 915.694 271.101 914.65 272.829 913.894C274.593 913.138 276.609 912.76 278.877 912.76C282.261 912.76 284.979 913.624 287.031 915.352C289.119 917.044 290.235 919.366 290.379 922.318H284.223C284.115 920.986 283.575 919.924 282.603 919.132C281.631 918.34 280.317 917.944 278.661 917.944C277.041 917.944 275.799 918.25 274.935 918.862C274.071 919.474 273.639 920.284 273.639 921.292C273.639 922.084 273.927 922.75 274.503 923.29C275.079 923.83 275.781 924.262 276.609 924.586C277.437 924.874 278.661 925.252 280.281 925.72C282.441 926.296 284.205 926.89 285.573 927.502C286.977 928.078 288.183 928.942 289.191 930.094C290.199 931.246 290.721 932.776 290.757 934.684C290.757 936.376 290.289 937.888 289.353 939.22C288.417 940.552 287.085 941.596 285.357 942.352C283.665 943.108 281.667 943.486 279.363 943.486ZM314.959 935.602L308.425 950.506H304.429L308.263 935.602H314.959ZM353.913 927.988C353.913 925 354.525 922.354 355.749 920.05C357.009 917.746 358.701 915.964 360.825 914.704C362.985 913.408 365.361 912.76 367.953 912.76C370.293 912.76 372.327 913.228 374.055 914.164C375.819 915.064 377.223 916.198 378.267 917.566V913.246H384.477V943H378.267V938.572C377.223 939.976 375.801 941.146 374.001 942.082C372.201 943.018 370.149 943.486 367.845 943.486C365.289 943.486 362.949 942.838 360.825 941.542C358.701 940.21 357.009 938.374 355.749 936.034C354.525 933.658 353.913 930.976 353.913 927.988ZM378.267 928.096C378.267 926.044 377.835 924.262 376.971 922.75C376.143 921.238 375.045 920.086 373.677 919.294C372.309 918.502 370.833 918.106 369.249 918.106C367.665 918.106 366.189 918.502 364.821 919.294C363.453 920.05 362.337 921.184 361.473 922.696C360.645 924.172 360.231 925.936 360.231 927.988C360.231 930.04 360.645 931.84 361.473 933.388C362.337 934.936 363.453 936.124 364.821 936.952C366.225 937.744 367.701 938.14 369.249 938.14C370.833 938.14 372.309 937.744 373.677 936.952C375.045 936.16 376.143 935.008 376.971 933.496C377.835 931.948 378.267 930.148 378.267 928.096ZM409.519 903.04V943H403.363V903.04H409.519ZM434.557 917.674C435.601 916.234 437.023 915.064 438.823 914.164C440.659 913.228 442.693 912.76 444.925 912.76C447.553 912.76 449.929 913.39 452.053 914.65C454.177 915.91 455.851 917.71 457.075 920.05C458.299 922.354 458.911 925 458.911 927.988C458.911 930.976 458.299 933.658 457.075 936.034C455.851 938.374 454.159 940.21 451.999 941.542C449.875 942.838 447.517 943.486 444.925 943.486C442.621 943.486 440.569 943.036 438.769 942.136C437.005 941.236 435.601 940.084 434.557 938.68V943H428.401V903.04H434.557V917.674ZM452.647 927.988C452.647 925.936 452.215 924.172 451.351 922.696C450.523 921.184 449.407 920.05 448.003 919.294C446.635 918.502 445.159 918.106 443.575 918.106C442.027 918.106 440.551 918.502 439.147 919.294C437.779 920.086 436.663 921.238 435.799 922.75C434.971 924.262 434.557 926.044 434.557 928.096C434.557 930.148 434.971 931.948 435.799 933.496C436.663 935.008 437.779 936.16 439.147 936.952C440.551 937.744 442.027 938.14 443.575 938.14C445.159 938.14 446.635 937.744 448.003 936.952C449.407 936.124 450.523 934.936 451.351 933.388C452.215 931.84 452.647 930.04 452.647 927.988ZM502.745 913.246V943H496.589V939.49C495.617 940.714 494.339 941.686 492.755 942.406C491.207 943.09 489.551 943.432 487.787 943.432C485.447 943.432 483.341 942.946 481.469 941.974C479.633 941.002 478.175 939.562 477.095 937.654C476.051 935.746 475.529 933.442 475.529 930.742V913.246H481.631V929.824C481.631 932.488 482.297 934.54 483.629 935.98C484.961 937.384 486.779 938.086 489.083 938.086C491.387 938.086 493.205 937.384 494.537 935.98C495.905 934.54 496.589 932.488 496.589 929.824V913.246H502.745ZM557.685 912.76C560.025 912.76 562.113 913.246 563.949 914.218C565.821 915.19 567.279 916.63 568.323 918.538C569.403 920.446 569.943 922.75 569.943 925.45V943H563.841V926.368C563.841 923.704 563.175 921.67 561.843 920.266C560.511 918.826 558.693 918.106 556.389 918.106C554.085 918.106 552.249 918.826 550.881 920.266C549.549 921.67 548.883 923.704 548.883 926.368V943H542.781V926.368C542.781 923.704 542.115 921.67 540.783 920.266C539.451 918.826 537.633 918.106 535.329 918.106C533.025 918.106 531.189 918.826 529.821 920.266C528.489 921.67 527.823 923.704 527.823 926.368V943H521.667V913.246H527.823V916.648C528.831 915.424 530.109 914.47 531.657 913.786C533.205 913.102 534.861 912.76 536.625 912.76C539.001 912.76 541.125 913.264 542.997 914.272C544.869 915.28 546.309 916.738 547.317 918.646C548.217 916.846 549.621 915.424 551.529 914.38C553.437 913.3 555.489 912.76 557.685 912.76ZM599.377 943.486C597.037 943.486 594.931 943.072 593.059 942.244C591.223 941.38 589.765 940.228 588.685 938.788C587.605 937.312 587.029 935.674 586.957 933.874H593.329C593.437 935.134 594.031 936.196 595.111 937.06C596.227 937.888 597.613 938.302 599.269 938.302C600.997 938.302 602.329 937.978 603.265 937.33C604.237 936.646 604.723 935.782 604.723 934.738C604.723 933.622 604.183 932.794 603.103 932.254C602.059 931.714 600.385 931.12 598.081 930.472C595.849 929.86 594.031 929.266 592.627 928.69C591.223 928.114 589.999 927.232 588.955 926.044C587.947 924.856 587.443 923.29 587.443 921.346C587.443 919.762 587.911 918.322 588.847 917.026C589.783 915.694 591.115 914.65 592.843 913.894C594.607 913.138 596.623 912.76 598.891 912.76C602.275 912.76 604.993 913.624 607.045 915.352C609.133 917.044 610.249 919.366 610.393 922.318H604.237C604.129 920.986 603.589 919.924 602.617 919.132C601.645 918.34 600.331 917.944 598.675 917.944C597.055 917.944 595.813 918.25 594.949 918.862C594.085 919.474 593.653 920.284 593.653 921.292C593.653 922.084 593.941 922.75 594.517 923.29C595.093 923.83 595.795 924.262 596.623 924.586C597.451 924.874 598.675 925.252 600.295 925.72C602.455 926.296 604.219 926.89 605.587 927.502C606.991 928.078 608.197 928.942 609.205 930.094C610.213 931.246 610.735 932.776 610.771 934.684C610.771 936.376 610.303 937.888 609.367 939.22C608.431 940.552 607.099 941.596 605.371 942.352C603.679 943.108 601.681 943.486 599.377 943.486ZM680.32 927.394C680.32 928.51 680.248 929.518 680.104 930.418H657.37C657.55 932.794 658.432 934.702 660.016 936.142C661.6 937.582 663.544 938.302 665.848 938.302C669.16 938.302 671.5 936.916 672.868 934.144H679.51C678.61 936.88 676.972 939.13 674.596 940.894C672.256 942.622 669.34 943.486 665.848 943.486C663.004 943.486 660.448 942.856 658.18 941.596C655.948 940.3 654.184 938.5 652.888 936.196C651.628 933.856 650.998 931.156 650.998 928.096C650.998 925.036 651.61 922.354 652.834 920.05C654.094 917.71 655.84 915.91 658.072 914.65C660.34 913.39 662.932 912.76 665.848 912.76C668.656 912.76 671.158 913.372 673.354 914.596C675.55 915.82 677.26 917.548 678.484 919.78C679.708 921.976 680.32 924.514 680.32 927.394ZM673.894 925.45C673.858 923.182 673.048 921.364 671.464 919.996C669.88 918.628 667.918 917.944 665.578 917.944C663.454 917.944 661.636 918.628 660.124 919.996C658.612 921.328 657.712 923.146 657.424 925.45H673.894ZM704.36 918.268V934.738C704.36 935.854 704.612 936.664 705.116 937.168C705.656 937.636 706.556 937.87 707.816 937.87H711.596V943H706.736C703.964 943 701.84 942.352 700.364 941.056C698.888 939.76 698.15 937.654 698.15 934.738V918.268H694.64V913.246H698.15V905.848H704.36V913.246H711.596V918.268H704.36ZM726.018 928.096C726.018 925.036 726.63 922.354 727.854 920.05C729.114 917.71 730.842 915.91 733.038 914.65C735.234 913.39 737.754 912.76 740.598 912.76C744.198 912.76 747.168 913.624 749.508 915.352C751.884 917.044 753.486 919.474 754.314 922.642H747.672C747.132 921.166 746.268 920.014 745.08 919.186C743.892 918.358 742.398 917.944 740.598 917.944C738.078 917.944 736.062 918.844 734.55 920.644C733.074 922.408 732.336 924.892 732.336 928.096C732.336 931.3 733.074 933.802 734.55 935.602C736.062 937.402 738.078 938.302 740.598 938.302C744.162 938.302 746.52 936.736 747.672 933.604H754.314C753.45 936.628 751.83 939.04 749.454 940.84C747.078 942.604 744.126 943.486 740.598 943.486C737.754 943.486 735.234 942.856 733.038 941.596C730.842 940.3 729.114 938.5 727.854 936.196C726.63 933.856 726.018 931.156 726.018 928.096ZM798.56 943.378C797.444 943.378 796.508 943 795.752 942.244C794.996 941.488 794.618 940.552 794.618 939.436C794.618 938.32 794.996 937.384 795.752 936.628C796.508 935.872 797.444 935.494 798.56 935.494C799.64 935.494 800.558 935.872 801.314 936.628C802.07 937.384 802.448 938.32 802.448 939.436C802.448 940.552 802.07 941.488 801.314 942.244C800.558 943 799.64 943.378 798.56 943.378ZM822.385 943.378C821.269 943.378 820.333 943 819.577 942.244C818.821 941.488 818.443 940.552 818.443 939.436C818.443 938.32 818.821 937.384 819.577 936.628C820.333 935.872 821.269 935.494 822.385 935.494C823.465 935.494 824.383 935.872 825.139 936.628C825.895 937.384 826.273 938.32 826.273 939.436C826.273 940.552 825.895 941.488 825.139 942.244C824.383 943 823.465 943.378 822.385 943.378Z" fill="white"/>
<defs>
<linearGradient id="paint0_linear" x1="442" y1="358.5" x2="442" y2="653.5" gradientUnits="userSpaceOnUse">
<stop stop-color="#FFCE9F"/>
<stop offset="1" stop-color="#F2AB6D"/>
</linearGradient>
</defs>
</svg>
