<svg width="40" height="50" viewBox="0 0 40 50" fill="none" xmlns="http://www.w3.org/2000/svg">
<g opacity="0.6">
<path d="M12.1874 0H2.81249C1.26184 0 0 1.40205 0 3.125V46.875C0 48.5979 1.26184 50 2.81249 50H12.1875C13.7382 50 15 48.5979 15 46.875V3.125C14.9999 1.40205 13.7381 0 12.1874 0Z" fill="white"/>
</g>
<g opacity="0.6">
<path d="M37.1874 0H27.8125C26.2618 0 25 1.40205 25 3.125V46.875C25 48.5979 26.2618 50 27.8125 50H37.1875C38.7382 50 40 48.5979 40 46.875V3.125C39.9999 1.40205 38.7381 0 37.1874 0Z" fill="white"/>
</g>
</svg>
