<svg width="45" height="42" viewBox="0 0 45 42" fill="none" xmlns="http://www.w3.org/2000/svg">
<path opacity="0.6" d="M42.7042 14.933C41.4315 13.5374 39.7959 12.6717 38.0278 12.4444V5.74927C38.0278 3.7086 37.0909 1.86458 35.5209 0.816522C34.0075 -0.193325 32.1628 -0.271236 30.5849 0.609384L9.46678 12.3829H2.63672C1.18206 12.3829 0 13.6737 0 15.26V26.7392C0 28.3255 1.18206 29.6163 2.63672 29.6163H9.46678L30.5849 41.3909C31.3145 41.7974 32.101 42 32.8852 42C33.7974 42 34.7079 41.7258 35.5209 41.1827C37.0909 40.1346 38.0278 38.2914 38.0278 36.2496V29.5548C39.7959 29.3278 41.4315 28.4618 42.7042 27.0662C44.1843 25.4417 45 23.2867 45 20.9996C45 18.7125 44.1843 16.5575 42.7042 14.933ZM8.80039 27.6981H6.18942V25.9672C6.18942 25.4368 5.79563 25.0083 5.31052 25.0083C4.82437 25.0083 4.43161 25.4368 4.43161 25.9672V27.6981H2.63672C2.1516 27.6981 1.75781 27.2684 1.75781 26.7392V15.26C1.75781 14.7315 2.1516 14.3008 2.63672 14.3008H8.80039V27.6981ZM36.27 36.2496C36.27 37.6183 35.6465 38.8506 34.6042 39.5469C33.6024 40.2152 32.4289 40.265 31.3848 39.6829L10.5582 28.0704V13.9288L31.3848 2.31631C32.4289 1.73385 33.6024 1.78404 34.6042 2.45228C35.6465 3.14861 36.27 4.38095 36.27 5.74927V12.4279C36.2075 12.4346 36.145 12.4425 36.0836 12.4511C36.0334 12.4575 35.9833 12.4653 35.9332 12.474C32.8958 12.922 30.3024 15.435 29.4636 18.6361C28.6819 21.6188 29.4677 24.9004 31.4824 27.089C32.7691 28.4869 34.4665 29.3623 36.27 29.5721V36.2496ZM37.1506 27.6973C34.2694 27.6973 31.6808 25.5244 31.0594 22.4297C30.5392 19.8388 31.5143 17.1059 33.485 15.5619C34.5396 14.7356 35.8165 14.2974 37.1135 14.3008C37.1249 14.3019 37.1372 14.3019 37.1486 14.3019C40.5087 14.3401 43.2422 17.3438 43.2422 20.9996C43.2422 24.6543 40.5107 27.6561 37.1506 27.6973C40.5107 27.6561 37.1389 27.6973 37.1506 27.6973Z" fill="white"/>
<path d="M41.5593 21.0561C41.5593 21.5865 41.1655 22.015 40.6804 22.015H38.0392V24.3377C38.0392 24.5123 38.0436 24.6868 38.0392 24.8614C38.0251 25.3918 37.6663 25.8446 37.1603 25.8446C36.6628 25.8446 36.2972 25.4023 36.2814 24.8779C36.2769 24.7524 36.2814 24.6265 36.2814 24.5018V22.0154H33.6392C33.1613 22.0154 32.7603 21.579 32.7603 21.0561C32.7603 20.5343 33.1613 20.0972 33.6392 20.0972H36.2814V17.7752C36.2814 17.2373 36.2409 16.6515 36.7734 16.3657C37.2966 16.0867 37.9389 16.4519 38.0285 17.0793C38.0471 17.2078 38.0392 17.3437 38.0392 17.4741V20.0972H40.6804C41.1655 20.0972 41.5593 20.5268 41.5593 21.0561V21.0561Z" fill="#E5A267"/>
</svg>
