<svg width="480" height="384" viewBox="0 0 480 384" fill="none" xmlns="http://www.w3.org/2000/svg">
<path opacity="0.3" d="M475.84 181.231L315.84 5.2313C311.392 0.335305 304.416 -1.2967 298.208 1.0713C292.064 3.4393 288 9.3593 288 15.9833V111.983H16C7.168 111.983 0 119.151 0 127.983V255.983C0 264.815 7.168 271.983 16 271.983H288V367.983C288 374.607 292.064 380.527 298.208 382.927C300.096 383.631 302.048 383.983 304 383.983C308.416 383.983 312.736 382.127 315.84 378.735L475.84 202.735C481.376 196.655 481.376 187.311 475.84 181.231Z" fill="white"/>
</svg>
