<svg width="31" height="26" viewBox="0 0 31 26" fill="none" xmlns="http://www.w3.org/2000/svg">
<g opacity="0.8">
<path d="M29.5155 22.0341L29.1113 21.75C29.4481 22.0909 29.6502 22.5455 29.6502 23C29.6502 23.7386 28.5723 24.0227 27.9659 23.5114L20.8918 17.5455C20.4875 17.2046 19.8811 17.2046 19.4769 17.5455L18.8032 18.1136L26.1469 24.7614C26.5511 25.1023 27.0901 25.3864 27.6291 25.4432C28.3702 25.5 29.1113 25.2727 29.5829 24.875C30.0545 24.4773 30.324 23.8523 30.2566 23.2273C30.2566 22.7727 29.9198 22.375 29.5155 22.0341Z" fill="white"/>
<path d="M30.3243 23.5113C30.3243 24.5909 29.2463 25.4999 27.9662 25.4999C27.2925 25.4999 26.6862 25.2726 26.2145 24.8749L18.6687 17.9431C18.3992 17.7158 18.3992 17.3749 18.6687 17.1476L20.4204 15.6703C20.6899 15.4431 21.0941 15.4431 21.3637 15.6703L29.5832 22.0909C30.0548 22.4318 30.3243 22.9999 30.3243 23.5113Z" fill="white"/>
<path d="M18.8671 16.9629L20.2009 15.838L18.2001 14.1506L16.8662 15.2755L18.8671 16.9629Z" fill="white"/>
<path d="M19.2077 16.1251L19.5446 16.4092L20.2183 15.841L18.1971 14.1365L16.8496 15.2729L17.8602 16.1251C18.2645 15.7842 18.8035 15.7842 19.2077 16.1251Z" fill="white"/>
<path d="M10.7859 0.5C5.19397 0.5 0.679932 4.30684 0.679932 9.02271C0.679932 13.7386 5.19397 17.5454 10.7859 17.5454C16.3778 17.5454 20.8919 13.7386 20.8919 9.02271C20.8919 4.30684 16.3779 0.5 10.7859 0.5ZM10.7859 15.8409C6.33927 15.8409 2.70113 12.7728 2.70113 9.02276C2.70113 5.27275 6.33927 2.20454 10.7859 2.20454C15.2325 2.20454 18.8707 5.27271 18.8707 9.02271C18.8707 12.7727 15.2325 15.8409 10.7859 15.8409Z" fill="white"/>
<path d="M6.81075 9.81825C7.14761 7.65917 9.1688 5.95463 11.729 5.67055H11.7964C12.9417 5.55693 13.0091 4.19325 11.9311 4.02284C11.2574 3.90922 10.5836 3.90922 9.90991 3.96601C7.28234 4.30693 5.19375 6.0683 4.85689 8.22739C4.72216 8.79555 4.7895 9.42055 4.92429 9.93193C5.12641 10.8978 6.74336 10.7842 6.87809 9.8183C6.81075 9.87509 6.81075 9.81825 6.81075 9.81825Z" fill="white"/>
<path d="M3.37488 9.59092C3.37488 5.84092 7.01302 2.77275 11.4597 2.77275C13.5483 2.77275 15.3673 3.45459 16.8495 4.4773C15.3673 3.05684 13.2114 2.20459 10.786 2.20459C6.33931 2.20459 2.70117 5.27275 2.70117 9.02276C2.70117 11.0682 3.77914 12.8864 5.39608 14.1364C4.18339 12.8864 3.37488 11.3523 3.37488 9.59092Z" fill="white"/>
<path d="M10.7859 17.5454C16.3779 17.5454 20.8919 13.7386 20.8919 9.02271C20.555 9.02271 20.2182 9.25 20.2182 9.59087C20.0834 11.5227 19.0728 13.284 17.5232 14.5909C15.9736 15.9545 13.8177 16.8068 11.4597 16.9772C11.0554 16.9772 10.7859 17.2613 10.7859 17.5454Z" fill="white"/>
<path d="M10.7859 0.5C5.19397 0.5 0.679932 4.30684 0.679932 9.02271C1.01679 9.02271 1.35364 8.79541 1.35364 8.45454C1.48843 6.57954 2.43166 4.875 3.84648 3.625C5.46343 2.20454 7.68675 1.23862 10.1122 1.06816C10.5164 1.06816 10.7859 0.784082 10.7859 0.5Z" fill="white"/>
<path d="M22.5761 18.1137C22.5087 18.1137 22.374 18.1137 22.3066 18.0568L20.6223 16.6364C20.4876 16.5227 20.4876 16.3523 20.6223 16.2387C20.757 16.125 20.9591 16.125 21.0939 16.2387L22.7782 17.6591C22.9129 17.7727 22.9129 17.9432 22.7782 18.0568C22.7783 18.1137 22.6435 18.1137 22.5761 18.1137Z" fill="white"/>
</g>
</svg>
