<svg width="39" height="36" viewBox="0 0 39 36" fill="none" xmlns="http://www.w3.org/2000/svg">
<path d="M36.4 21.9611H2.59998V2.96106H36.4V21.9611ZM3.89998 20.6944H35.1V4.22773H3.89998V20.6944Z" fill="white"/>
<path d="M9.75 23.8611H35.1V25.1278H9.75V23.8611Z" fill="white"/>
<path d="M7.79999 23.2278H9.09999V25.7611H7.79999V23.2278Z" fill="white"/>
<path d="M3.89996 23.8611H7.14996V25.1278H3.89996V23.8611Z" fill="white"/>
<path d="M14.95 18.5525V6.36951L27.4532 12.461L14.95 18.5525ZM16.25 8.41918V16.5028L24.5467 12.461L16.25 8.41918Z" fill="white"/>
<path d="M37.05 0.427734H1.95C0.87312 0.427734 0 1.27847 0 2.32773V26.3944C0 27.4437 0.87312 28.2944 1.95 28.2944H13.65V32.0944H7.15V35.8944H31.85V32.0944H25.35V28.2944H37.05C38.1269 28.2944 39 27.4437 39 26.3944V2.32773C39 1.27847 38.1269 0.427734 37.05 0.427734ZM30.55 33.3611V34.6277H8.45V33.3611H30.55ZM24.05 32.0944H14.95V28.2944H24.05V32.0944ZM37.7 26.3944C37.7 26.7442 37.409 27.0277 37.05 27.0277H1.95C1.59104 27.0277 1.3 26.7442 1.3 26.3944V2.32773C1.3 1.97798 1.59104 1.6944 1.95 1.6944H37.05C37.409 1.6944 37.7 1.97798 37.7 2.32773V26.3944Z" fill="white"/>
</svg>
