<svg width="107" height="29" viewBox="0 0 107 29" fill="none" xmlns="http://www.w3.org/2000/svg">
<path d="M20.34 2.908L12.168 18.532V28H8.892V18.532L0.684 2.908H4.32L10.512 15.616L16.704 2.908H20.34ZM44.8914 8.272V28H41.6154V25.084C40.9914 26.092 40.1154 26.884 38.9874 27.46C37.8834 28.012 36.6594 28.288 35.3154 28.288C33.7794 28.288 32.3994 27.976 31.1754 27.352C29.9514 26.704 28.9794 25.744 28.2594 24.472C27.5634 23.2 27.2154 21.652 27.2154 19.828V8.272H30.4554V19.396C30.4554 21.34 30.9474 22.84 31.9314 23.896C32.9154 24.928 34.2594 25.444 35.9634 25.444C37.7154 25.444 39.0954 24.904 40.1034 23.824C41.1114 22.744 41.6154 21.172 41.6154 19.108V8.272H44.8914ZM61.0068 28.324C59.4948 28.324 58.1388 28.072 56.9388 27.568C55.7388 27.04 54.7908 26.32 54.0948 25.408C53.3988 24.472 53.0148 23.404 52.9428 22.204H56.3268C56.4228 23.188 56.8788 23.992 57.6948 24.616C58.5348 25.24 59.6268 25.552 60.9708 25.552C62.2188 25.552 63.2028 25.276 63.9228 24.724C64.6428 24.172 65.0028 23.476 65.0028 22.636C65.0028 21.772 64.6188 21.136 63.8508 20.728C63.0828 20.296 61.8948 19.876 60.2868 19.468C58.8228 19.084 57.6228 18.7 56.6868 18.316C55.7748 17.908 54.9828 17.32 54.3108 16.552C53.6628 15.76 53.3388 14.728 53.3388 13.456C53.3388 12.448 53.6388 11.524 54.2388 10.684C54.8388 9.844 55.6908 9.184 56.7948 8.704C57.8988 8.2 59.1588 7.948 60.5748 7.948C62.7588 7.948 64.5228 8.5 65.8668 9.604C67.2108 10.708 67.9308 12.22 68.0268 14.14H64.7508C64.6788 13.108 64.2588 12.28 63.4908 11.656C62.7468 11.032 61.7388 10.72 60.4668 10.72C59.2908 10.72 58.3548 10.972 57.6588 11.476C56.9628 11.98 56.6148 12.64 56.6148 13.456C56.6148 14.104 56.8188 14.644 57.2268 15.076C57.6588 15.484 58.1868 15.82 58.8108 16.084C59.4588 16.324 60.3468 16.6 61.4748 16.912C62.8908 17.296 64.0428 17.68 64.9308 18.064C65.8188 18.424 66.5748 18.976 67.1988 19.72C67.8468 20.464 68.1828 21.436 68.2068 22.636C68.2068 23.716 67.9068 24.688 67.3068 25.552C66.7068 26.416 65.8548 27.1 64.7508 27.604C63.6708 28.084 62.4228 28.324 61.0068 28.324ZM78.1234 5.068C77.4994 5.068 76.9714 4.852 76.5394 4.42C76.1074 3.988 75.8914 3.46 75.8914 2.836C75.8914 2.212 76.1074 1.684 76.5394 1.252C76.9714 0.819999 77.4994 0.603999 78.1234 0.603999C78.7234 0.603999 79.2274 0.819999 79.6354 1.252C80.0674 1.684 80.2834 2.212 80.2834 2.836C80.2834 3.46 80.0674 3.988 79.6354 4.42C79.2274 4.852 78.7234 5.068 78.1234 5.068ZM79.7074 8.272V28H76.4314V8.272H79.7074ZM87.6668 18.1C87.6668 16.06 88.0748 14.284 88.8908 12.772C89.7068 11.236 90.8348 10.048 92.2748 9.208C93.7388 8.368 95.4068 7.948 97.2788 7.948C99.7028 7.948 101.695 8.536 103.255 9.712C104.839 10.888 105.883 12.52 106.387 14.608H102.859C102.523 13.408 101.863 12.46 100.879 11.764C99.9188 11.068 98.7188 10.72 97.2788 10.72C95.4068 10.72 93.8948 11.368 92.7428 12.664C91.5908 13.936 91.0148 15.748 91.0148 18.1C91.0148 20.476 91.5908 22.312 92.7428 23.608C93.8948 24.904 95.4068 25.552 97.2788 25.552C98.7188 25.552 99.9188 25.216 100.879 24.544C101.839 23.872 102.499 22.912 102.859 21.664H106.387C105.859 23.68 104.803 25.3 103.219 26.524C101.635 27.724 99.6548 28.324 97.2788 28.324C95.4068 28.324 93.7388 27.904 92.2748 27.064C90.8348 26.224 89.7068 25.036 88.8908 23.5C88.0748 21.964 87.6668 20.164 87.6668 18.1Z" fill="url(#paint0_linear)"/>
<defs>
<linearGradient id="paint0_linear" x1="18.6" y1="2.4" x2="54.6" y2="40.8" gradientUnits="userSpaceOnUse">
<stop stop-color="#FFCE9F"/>
<stop offset="1" stop-color="#E5A267"/>
</linearGradient>
</defs>
</svg>
